<svg id="snap_text" data-name="Layer 1" xmlns="http://www.w3.org/2000/svg" style="padding: 62px 37px;" width="350" height="474.45" viewBox="0 0 350 474.45">
  <defs>
    <style>
      .\30 8150496-683e-48c4-802f-247b4090c4c4 {
        fill: #231f20;
      }

      .\31 1a195df-7985-49cb-9dc9-8e4293d40d2a {
        font-size: 22px;
      }

      .\31 1a195df-7985-49cb-9dc9-8e4293d40d2a, .d2b24f1c-d7d4-4be4-bf1e-414da400bcdc {
        fill: #69bd45;
        font-family: Filson Soft;
      }

      .e80b457c-c5b7-48ca-8541-ff36654519be {
        white-space: pre;
      }

      .d2b24f1c-d7d4-4be4-bf1e-414da400bcdc {
        font-size: 50px;
      }
    </style>
  </defs>
  <title>SNAP_text</title>
  <g>
    <path class="08150496-683e-48c4-802f-247b4090c4c4" d="M93.58,37.64v1.27a1.28,1.28,0,0,1-1.43,1.4H85.59v3.25h5.54a1.26,1.26,0,0,1,1.4,1.4v0.86a1.26,1.26,0,0,1-1.4,1.4H85.59V53a1.27,1.27,0,0,1-1.4,1.4h-2a1.26,1.26,0,0,1-1.4-1.4V37.64a1.26,1.26,0,0,1,1.4-1.4h9.93A1.28,1.28,0,0,1,93.58,37.64Z" transform="translate(-35.85 -35.22)"/>
    <path class="08150496-683e-48c4-802f-247b4090c4c4" d="M94.46,47.68c0-3.9,3.2-7,7.64-7s7.64,3.15,7.64,7-3.17,7-7.64,7S94.46,51.58,94.46,47.68Zm10.92,0A3.26,3.26,0,1,0,102.1,51,3.21,3.21,0,0,0,105.38,47.68Z" transform="translate(-35.85 -35.22)"/>
    <path class="08150496-683e-48c4-802f-247b4090c4c4" d="M111.07,47.68c0-3.9,3.2-7,7.64-7s7.64,3.15,7.64,7-3.17,7-7.64,7S111.07,51.58,111.07,47.68Zm10.92,0A3.26,3.26,0,1,0,118.72,51,3.21,3.21,0,0,0,122,47.68Z" transform="translate(-35.85 -35.22)"/>
    <path class="08150496-683e-48c4-802f-247b4090c4c4" d="M127.74,47.68c0-4,2.73-7,6.45-7a4.62,4.62,0,0,1,4.08,2.11V37a1.26,1.26,0,0,1,1.4-1.4h1.87A1.26,1.26,0,0,1,143,37V53a1.26,1.26,0,0,1-1.4,1.4h-1.87a1.26,1.26,0,0,1-1.4-1.4V52.64a4.65,4.65,0,0,1-4.08,2.08C130.47,54.72,127.74,51.71,127.74,47.68Zm10.61,0c0-1.92-1.17-3.41-3-3.41s-2.94,1.51-2.94,3.41,1.12,3.41,2.94,3.41S138.32,49.6,138.35,47.68Z" transform="translate(-35.85 -35.22)"/>
    <path class="08150496-683e-48c4-802f-247b4090c4c4" d="M151.37,50.69a1.21,1.21,0,0,1,1-1.72l1.3-.31a1.46,1.46,0,0,1,1.72.91,3.36,3.36,0,0,0,3,1.43c1.51,0,2.52-.6,2.52-1.66,0-.68-0.44-1.33-1.79-1.77l-2.21-.81c-1.53-.49-5-1.9-5.1-5.23S154.73,36,158.5,36a6.21,6.21,0,0,1,5.9,3.25,1.16,1.16,0,0,1-.83,1.79l-1.22.34a1.55,1.55,0,0,1-1.82-.75,2.22,2.22,0,0,0-2-.91c-1.09,0-2.08.52-2.08,1.51,0,0.57.34,1.17,1.72,1.66l2.18,0.78c3.8,1.3,5.12,3.12,5.17,5.54,0,3.72-3.25,5.56-7.18,5.56C154.91,54.72,152.39,53.21,151.37,50.69Z" transform="translate(-35.85 -35.22)"/>
    <path class="08150496-683e-48c4-802f-247b4090c4c4" d="M167.81,58.86V42.32a1.26,1.26,0,0,1,1.4-1.4h1.87a1.26,1.26,0,0,1,1.4,1.4v0.39a4.59,4.59,0,0,1,4.08-2.08c3.69,0,6.42,3,6.42,7s-2.73,7-6.42,7a4.59,4.59,0,0,1-4.08-2.08v6.21a1.26,1.26,0,0,1-1.4,1.4h-1.87A1.26,1.26,0,0,1,167.81,58.86Zm10.5-11.18c0-1.9-1.09-3.41-2.91-3.41s-3,1.48-3,3.41,1.17,3.41,3,3.41S178.31,49.57,178.31,47.68Z" transform="translate(-35.85 -35.22)"/>
    <path class="08150496-683e-48c4-802f-247b4090c4c4" d="M184.37,47.73c0-3.74,2.76-7.1,7.49-7.1,4.06,0,7.23,2.44,7.31,6.76,0,0.81-.55,1.14-1.43,1.14h-9c0,1.2,1.38,2.6,3.85,2.6a5.58,5.58,0,0,0,2.68-.68,1.4,1.4,0,0,1,1.95.34l0.36,0.47a1.28,1.28,0,0,1-.29,2,9,9,0,0,1-5.07,1.43C187.31,54.72,184.37,51.6,184.37,47.73Zm10.5-1.53a2.73,2.73,0,0,0-3-2.18,2.84,2.84,0,0,0-3,2.18h6Z" transform="translate(-35.85 -35.22)"/>
    <path class="08150496-683e-48c4-802f-247b4090c4c4" d="M201.21,53V42.32a1.26,1.26,0,0,1,1.4-1.4h1.87a1.26,1.26,0,0,1,1.4,1.4v0.52a4.08,4.08,0,0,1,3.93-2.21c3.9,0,4.81,3.25,4.81,6V53a1.26,1.26,0,0,1-1.4,1.4h-1.87A1.26,1.26,0,0,1,210,53V47c0-1.46-.47-2.63-1.85-2.63s-2.21,1.14-2.21,2.94V53a1.26,1.26,0,0,1-1.4,1.4h-1.87A1.26,1.26,0,0,1,201.21,53Z" transform="translate(-35.85 -35.22)"/>
    <path class="08150496-683e-48c4-802f-247b4090c4c4" d="M216.63,47.68c0-4,2.73-7,6.45-7a4.62,4.62,0,0,1,4.08,2.11V37a1.26,1.26,0,0,1,1.4-1.4h1.87a1.26,1.26,0,0,1,1.4,1.4V53a1.26,1.26,0,0,1-1.4,1.4h-1.87a1.26,1.26,0,0,1-1.4-1.4V52.64a4.65,4.65,0,0,1-4.08,2.08C219.36,54.72,216.63,51.71,216.63,47.68Zm10.61,0c0-1.92-1.17-3.41-3-3.41s-2.94,1.51-2.94,3.41,1.12,3.41,2.94,3.41S227.22,49.6,227.24,47.68Z" transform="translate(-35.85 -35.22)"/>
    <path class="08150496-683e-48c4-802f-247b4090c4c4" d="M234.42,37.46c0-1.25.91-2.24,2.68-2.24s2.7,1,2.7,2.24-1,2.24-2.7,2.24S234.42,38.73,234.42,37.46ZM234.76,53V42.32a1.26,1.26,0,0,1,1.4-1.4H238a1.26,1.26,0,0,1,1.4,1.4V53a1.26,1.26,0,0,1-1.4,1.4h-1.87A1.26,1.26,0,0,1,234.76,53Z" transform="translate(-35.85 -35.22)"/>
    <path class="08150496-683e-48c4-802f-247b4090c4c4" d="M242.37,53V42.32a1.26,1.26,0,0,1,1.4-1.4h1.87a1.26,1.26,0,0,1,1.4,1.4v0.52A4.08,4.08,0,0,1,251,40.63c3.9,0,4.81,3.25,4.81,6V53a1.26,1.26,0,0,1-1.4,1.4h-1.87a1.26,1.26,0,0,1-1.4-1.4V47c0-1.46-.47-2.63-1.85-2.63s-2.21,1.14-2.21,2.94V53a1.26,1.26,0,0,1-1.4,1.4h-1.87A1.26,1.26,0,0,1,242.37,53Z" transform="translate(-35.85 -35.22)"/>
    <path class="08150496-683e-48c4-802f-247b4090c4c4" d="M259.82,59.43a1.22,1.22,0,0,1-.55-1.9l0.39-.7a1.26,1.26,0,0,1,1.87-.55,7.06,7.06,0,0,0,3.09.75,3.36,3.36,0,0,0,3.69-3.72V52.64a4.73,4.73,0,0,1-4.16,2.08c-3.69,0-6.37-3.17-6.37-7s2.68-7,6.37-7a4.56,4.56,0,0,1,4.08,2.11v-0.6a1.17,1.17,0,0,1,1.4-1.22h1.77a1.26,1.26,0,0,1,1.4,1.4V53.06c0,5.46-3.46,7.49-7.7,7.49A12.24,12.24,0,0,1,259.82,59.43Zm8.5-11.75c0-1.92-1.17-3.46-3-3.46s-3,1.56-3,3.46,1.14,3.46,3,3.46S268.32,49.6,268.32,47.68Z" transform="translate(-35.85 -35.22)"/>
    <path class="08150496-683e-48c4-802f-247b4090c4c4" d="M282.65,53V44.35h-1a0.66,0.66,0,0,1-.73-0.73V41.9a0.66,0.66,0,0,1,.73-0.73h1V40.4c0-4.06,2.91-5,5.25-5s4.68,0.94,4.68,3.67a1.94,1.94,0,0,1,0,.39,0.65,0.65,0,0,1-.7.62h-2.16a0.49,0.49,0,0,1-.55-0.49V39.41a0.87,0.87,0,0,0-1-.75,1,1,0,0,0-1,1.14v1.38h2.11a0.67,0.67,0,0,1,.73.73v1.72a0.67,0.67,0,0,1-.73.73h-2V53a1.26,1.26,0,0,1-1.4,1.4h-1.77A1.28,1.28,0,0,1,282.65,53Z" transform="translate(-35.85 -35.22)"/>
    <path class="08150496-683e-48c4-802f-247b4090c4c4" d="M291,47.68c0-3.9,3.2-7,7.64-7s7.64,3.15,7.64,7-3.17,7-7.64,7S291,51.58,291,47.68Zm10.92,0A3.26,3.26,0,1,0,298.66,51,3.21,3.21,0,0,0,301.94,47.68Z" transform="translate(-35.85 -35.22)"/>
    <path class="08150496-683e-48c4-802f-247b4090c4c4" d="M308.44,53V42.32a1.26,1.26,0,0,1,1.4-1.4h1.72a1.27,1.27,0,0,1,1.4,1.4v1.51a3.54,3.54,0,0,1,3.43-3.2,2.12,2.12,0,0,1,.39,0,0.87,0.87,0,0,1,.81,1.07v2.34a0.87,0.87,0,0,1-1,1,5.25,5.25,0,0,0-.62,0c-1.87,0-2.83,1.25-2.83,3.67V53a1.26,1.26,0,0,1-1.4,1.4h-1.87A1.26,1.26,0,0,1,308.44,53Z" transform="translate(-35.85 -35.22)"/>
    <path class="08150496-683e-48c4-802f-247b4090c4c4" d="M67.48,109.94c0,5.8-3.25,9.1-8.2,9.1-3.1,0-6.3-1.1-9.65-6.45a11.31,11.31,0,0,1-1.35-6.05,42,42,0,0,1,.45-5.7l5.6,0.6,2.4,2.3c-0.4-2.2-1.8-4.55-4-7.15-3.25-4-4.6-7.1-4.6-11.6v-0.6c0-5.1,2-9.1,8-9.1a7.54,7.54,0,0,1,4.25,1c4.8,3.2,6.65,6,6.65,11.25a38.28,38.28,0,0,1-.35,5.25l-5.05-.45s1.4,2.3,2.3,3.9a26.62,26.62,0,0,1,3.55,13v0.75Zm-4-4.25c0-4.8-2.15-9.35-5.45-13.55-2.4-3.05-3.25-5.35-3.25-7.65v-0.8c0-2.2.35-3.3,1.75-3.3s1.85,1.2,1.85,4.45a22.43,22.43,0,0,1-.2,3.35l4.45,0.5a32.48,32.48,0,0,0,.3-4.4c0-5.2-1.65-8.4-6.85-8.4-5.45,0-7.35,3.6-7.35,8.5V85c0,4.3,1.3,7.4,4.5,11.25,3.3,4,4.1,6.65,4.1,9.6v1.05c0,2.35-.6,3.5-2,3.5-1.55,0-2.05-1.2-2.05-4.4a33.39,33.39,0,0,1,.3-4l-4.4-.5a38.18,38.18,0,0,0-.35,5.05c0,5.45,2,8.4,6.9,8.4,4.7,0,7.75-2.5,7.75-8.5v-0.75Z" transform="translate(-35.85 -35.22)"/>
    <path class="08150496-683e-48c4-802f-247b4090c4c4" d="M89.07,118.44h-5.4l-3.55-3.5-0.9-3.75v7.25H73.17l-3.55-3.5v-39h6.15l3.05,3.55L79.47,81v-5.1h6.1l3.5,3.6v38.9Zm-4.1-4V76.53h-4.9v19.2l-4.8-19.2H70.22v37.9h4.9V92.54l5.5,21.9H85Z" transform="translate(-35.85 -35.22)"/>
    <path class="08150496-683e-48c4-802f-247b4090c4c4" d="M112.17,118.49h-7.4l-3.5-3.55-0.15-1.8h-0.3l-0.4,5.35H94.17l-3.45-3.55,5.05-39h7.65l3.5,3.55Zm-4.25-4.15-5-37.8H96.27l-4.85,37.8h5l0.5-5.35h4.45l0.5,5.35h6.1Zm-7.2-10.1h-3.4l1.95-19Z" transform="translate(-35.85 -35.22)"/>
    <path class="08150496-683e-48c4-802f-247b4090c4c4" d="M124.87,104.54h-0.3v13.9h-7.2l-3.55-3.5v-39H122a9.47,9.47,0,0,1,4.8,1.1c3.85,2.25,7.5,5.2,7.5,14.85S129.82,104.54,124.87,104.54Zm-2.85-28h-7.6v37.8h6.05V100.59h1.8c4.45,0,8-2.7,8-12.2C130.22,79.38,127.47,76.53,122,76.53Zm-0.5,19.35h-1.05V81.23h1c2,0,2.85,1.85,2.85,7.1C124.32,94,123.37,95.89,121.52,95.89Z" transform="translate(-35.85 -35.22)"/>
    <path class="08150496-683e-48c4-802f-247b4090c4c4" d="M147.62,113.7l-3.24-7.49a0.72,0.72,0,0,1,.72-1.13h1.44a1.07,1.07,0,0,1,1.12.79l1.76,5.06,1.82-5.06a1.06,1.06,0,0,1,1.1-.79h1.44a0.73,0.73,0,0,1,.74,1.13l-3.22,7.49a1.15,1.15,0,0,1-1.13.74h-1.4A1.13,1.13,0,0,1,147.62,113.7Z" transform="translate(-35.85 -35.22)"/>
    <path class="08150496-683e-48c4-802f-247b4090c4c4" d="M155.29,112.71a0.82,0.82,0,0,1,.68-1.19l0.63-.14a1.18,1.18,0,0,1,1.21.56,1.77,1.77,0,0,0,1.24.43c0.63,0,1-.23,1-0.65s-0.18-.45-0.76-0.65l-1.1-.4c-0.74-.25-2.77-0.9-2.77-2.79s1.55-3,3.64-3a3.53,3.53,0,0,1,3,1.37,0.78,0.78,0,0,1-.54,1.28l-0.58.16a1.14,1.14,0,0,1-1.17-.34,1.13,1.13,0,0,0-.77-0.27,0.68,0.68,0,0,0-.77.61,0.79,0.79,0,0,0,.74.63l1.12,0.43c2,0.68,2.77,1.69,2.79,2.92,0,2-1.82,3-3.91,3C157.27,114.64,155.92,114,155.29,112.71Z" transform="translate(-35.85 -35.22)"/>
    <path class="08150496-683e-48c4-802f-247b4090c4c4" d="M195.88,118.44h-5.4l-3.55-3.5-0.9-3.75v7.25H180l-3.55-3.5v-39h6.15l3.05,3.55L186.27,81v-5.1h6.1l3.5,3.6v38.9Zm-4.1-4V76.53h-4.9v19.2l-4.8-19.2H177v37.9h4.9V92.54l5.5,21.9h4.35Z" transform="translate(-35.85 -35.22)"/>
    <path class="08150496-683e-48c4-802f-247b4090c4c4" d="M219,109.79c0,6.5-4,9.25-8.55,9.25-3.55,0-5.3-.7-10.15-6.05a8.85,8.85,0,0,1-2.05-6.25V84.08c0-6.45,4.05-8.8,8.7-8.8a9.45,9.45,0,0,1,5.1,1.3c5.1,3.2,7,6.8,7,11v22.2Zm-4.1-25.7c0-6.1-3.55-8.2-8-8.2s-8.1,2.15-8.1,8.2v22.65c0,6,3.65,8.2,8.1,8.2s8-2.1,8-8.2V84.08Zm-6.05,24c0,1.55-.7,2.35-1.9,2.35s-2-.8-2-2.4V82.79c0-1.65.8-2.4,2-2.4,1,0,2,.75,2,2.4V108Z" transform="translate(-35.85 -35.22)"/>
    <path class="08150496-683e-48c4-802f-247b4090c4c4" d="M240.87,118.44h-5.4l-3.55-3.5-0.9-3.75v7.25H225l-3.55-3.5v-39h6.15l3,3.55L231.27,81v-5.1h6.1l3.5,3.6v38.9Zm-4.1-4V76.53h-4.9v19.2l-4.8-19.2H222v37.9h4.9V92.54l5.5,21.9h4.35Z" transform="translate(-35.85 -35.22)"/>
    <path class="08150496-683e-48c4-802f-247b4090c4c4" d="M259.47,101.39H247.82l-3.55-3.5V92.34H256l3.5,3.5v5.55Zm-4.1-4.1V92.94h-10.5v4.35h10.5Z" transform="translate(-35.85 -35.22)"/>
    <path class="08150496-683e-48c4-802f-247b4090c4c4" d="M281.52,109.94c0,5.8-3.25,9.1-8.2,9.1-3.1,0-6.3-1.1-9.65-6.45a11.31,11.31,0,0,1-1.35-6.05,42.2,42.2,0,0,1,.45-5.7l5.6,0.6,2.4,2.3c-0.4-2.2-1.8-4.55-4-7.15-3.25-4-4.6-7.1-4.6-11.6v-0.6c0-5.1,2-9.1,8-9.1a7.54,7.54,0,0,1,4.25,1c4.8,3.2,6.65,6,6.65,11.25a38.27,38.27,0,0,1-.35,5.25l-5-.45s1.4,2.3,2.3,3.9a26.62,26.62,0,0,1,3.55,13v0.75Zm-4-4.25c0-4.8-2.15-9.35-5.45-13.55-2.4-3.05-3.25-5.35-3.25-7.65v-0.8c0-2.2.35-3.3,1.75-3.3s1.85,1.2,1.85,4.45a22.48,22.48,0,0,1-.2,3.35l4.45,0.5a32.4,32.4,0,0,0,.3-4.4c0-5.2-1.65-8.4-6.85-8.4-5.45,0-7.35,3.6-7.35,8.5V85c0,4.3,1.3,7.4,4.5,11.25,3.3,4,4.1,6.65,4.1,9.6v1.05c0,2.35-.6,3.5-2,3.5s-2-1.2-2-4.4a33.49,33.49,0,0,1,.3-4l-4.4-.5a38.37,38.37,0,0,0-.35,5.05c0,5.45,2,8.4,6.9,8.4,4.7,0,7.75-2.5,7.75-8.5v-0.75Z" transform="translate(-35.85 -35.22)"/>
    <path class="08150496-683e-48c4-802f-247b4090c4c4" d="M303.12,118.44h-5.4l-3.55-3.5-0.9-3.75v7.25h-6.05l-3.55-3.5v-39h6.15l3,3.55L293.52,81v-5.1h6.1l3.5,3.6v38.9Zm-4.1-4V76.53h-4.9v19.2l-4.8-19.2h-5.05v37.9h4.9V92.54l5.5,21.9H299Z" transform="translate(-35.85 -35.22)"/>
    <path class="08150496-683e-48c4-802f-247b4090c4c4" d="M326.22,118.49h-7.4l-3.5-3.55-0.15-1.8h-0.3l-0.4,5.35h-6.25l-3.45-3.55,5.05-39h7.65l3.5,3.55ZM322,114.34l-5-37.8h-6.65l-4.85,37.8h5l0.5-5.35h4.45l0.5,5.35H322Zm-7.2-10.1h-3.4l2-19Z" transform="translate(-35.85 -35.22)"/>
    <path class="08150496-683e-48c4-802f-247b4090c4c4" d="M338.92,104.54h-0.3v13.9h-7.2l-3.55-3.5v-39h8.2a9.47,9.47,0,0,1,4.8,1.1c3.85,2.25,7.5,5.2,7.5,14.85S343.87,104.54,338.92,104.54Zm-2.85-28h-7.6v37.8h6.05V100.59h1.8c4.45,0,8-2.7,8-12.2C344.27,79.38,341.52,76.53,336.07,76.53Zm-0.5,19.35h-1V81.23h1c2,0,2.85,1.85,2.85,7.1C338.37,94,337.42,95.89,335.57,95.89Z" transform="translate(-35.85 -35.22)"/>
    <path class="08150496-683e-48c4-802f-247b4090c4c4" d="M60.7,151.76V139.91a1,1,0,0,1,1.08-1.08H63.3a1,1,0,0,1,1.08,1.08v4.72h4.68v-4.72a1,1,0,0,1,1.08-1.08h1.5a1,1,0,0,1,1.08,1.08v11.84a1,1,0,0,1-1.08,1.08h-1.5a1,1,0,0,1-1.08-1.08v-4.12H64.38v4.12a1,1,0,0,1-1.08,1.08H61.78A1,1,0,0,1,60.7,151.76Z" transform="translate(-35.85 -35.22)"/>
    <path class="08150496-683e-48c4-802f-247b4090c4c4" d="M74.48,147.64a5.9,5.9,0,1,1,5.88,5.42A5.55,5.55,0,0,1,74.48,147.64Zm8.4,0a2.51,2.51,0,1,0-2.52,2.58A2.47,2.47,0,0,0,82.88,147.64Z" transform="translate(-35.85 -35.22)"/>
    <path class="08150496-683e-48c4-802f-247b4090c4c4" d="M87.74,148.48v-5a1,1,0,0,1,1.08-1.08h1.44a1,1,0,0,1,1.08,1.08v4.66c0,1.12.38,2,1.44,2s1.7-.9,1.7-2.28v-4.42a1,1,0,0,1,1.08-1.08H97a1,1,0,0,1,1.08,1.08v8.24A1,1,0,0,1,97,152.84H95.56a1,1,0,0,1-1.08-1.08v-0.38a3.19,3.19,0,0,1-3,1.68C88.44,153.06,87.74,150.56,87.74,148.48Z" transform="translate(-35.85 -35.22)"/>
    <path class="08150496-683e-48c4-802f-247b4090c4c4" d="M99.88,150.92a0.91,0.91,0,0,1,.76-1.32l0.7-.16a1.32,1.32,0,0,1,1.34.62,2,2,0,0,0,1.38.48c0.7,0,1.16-.26,1.16-0.72,0-.3-0.2-0.5-0.84-0.72l-1.22-.44c-0.82-.28-3.08-1-3.08-3.1s1.72-3.34,4-3.34a3.92,3.92,0,0,1,3.38,1.52,0.87,0.87,0,0,1-.6,1.42l-0.64.18A1.26,1.26,0,0,1,105,145a1.26,1.26,0,0,0-.86-0.3,0.76,0.76,0,0,0-.86.68,0.88,0.88,0,0,0,.82.7l1.24,0.48c2.18,0.76,3.08,1.88,3.1,3.24,0,2.24-2,3.3-4.34,3.3C102.08,153.06,100.58,152.36,99.88,150.92Z" transform="translate(-35.85 -35.22)"/>
    <path class="08150496-683e-48c4-802f-247b4090c4c4" d="M109.44,147.68a5.42,5.42,0,0,1,5.76-5.46c3.12,0,5.56,1.88,5.62,5.2a0.89,0.89,0,0,1-1.1.88h-6.9c0,0.92,1.06,2,3,2a4.3,4.3,0,0,0,2.06-.52,1.08,1.08,0,0,1,1.5.26l0.28,0.36a1,1,0,0,1-.22,1.56,6.93,6.93,0,0,1-3.9,1.1C111.7,153.06,109.44,150.66,109.44,147.68Zm8.08-1.18a2.1,2.1,0,0,0-2.3-1.68,2.18,2.18,0,0,0-2.34,1.68h4.64Z" transform="translate(-35.85 -35.22)"/>
    <path class="08150496-683e-48c4-802f-247b4090c4c4" d="M122.4,151.76v-12.3a1,1,0,0,1,1.08-1.08h1.44a1,1,0,0,1,1.08,1.08v4.46a3.14,3.14,0,0,1,3-1.7c3,0,3.7,2.5,3.7,4.58v5a1,1,0,0,1-1.08,1.08H130.2a1,1,0,0,1-1.08-1.08V147.1c0-1.12-.36-2-1.42-2s-1.7.88-1.7,2.26v4.42a1,1,0,0,1-1.08,1.08h-1.44A1,1,0,0,1,122.4,151.76Z" transform="translate(-35.85 -35.22)"/>
    <path class="08150496-683e-48c4-802f-247b4090c4c4" d="M134.2,147.64a5.9,5.9,0,1,1,5.88,5.42A5.55,5.55,0,0,1,134.2,147.64Zm8.4,0a2.51,2.51,0,1,0-2.52,2.58A2.47,2.47,0,0,0,142.6,147.64Z" transform="translate(-35.85 -35.22)"/>
    <path class="08150496-683e-48c4-802f-247b4090c4c4" d="M147.6,151.76v-12.3a1,1,0,0,1,1.08-1.08h1.44a1,1,0,0,1,1.08,1.08v12.3a1,1,0,0,1-1.08,1.08h-1.44A1,1,0,0,1,147.6,151.76Z" transform="translate(-35.85 -35.22)"/>
    <path class="08150496-683e-48c4-802f-247b4090c4c4" d="M152.88,147.64c0-3.1,2.1-5.42,5-5.42a3.55,3.55,0,0,1,3.14,1.62v-4.38a1,1,0,0,1,1.08-1.08h1.44a1,1,0,0,1,1.08,1.08v12.3a1,1,0,0,1-1.08,1.08h-1.44a1,1,0,0,1-1.08-1.08v-0.3a3.58,3.58,0,0,1-3.14,1.6C155,153.06,152.88,150.74,152.88,147.64Zm8.16,0a2.39,2.39,0,0,0-2.3-2.62,2.65,2.65,0,0,0,0,5.24A2.39,2.39,0,0,0,161,147.64Z" transform="translate(-35.85 -35.22)"/>
    <path class="08150496-683e-48c4-802f-247b4090c4c4" d="M166.4,150.92a0.91,0.91,0,0,1,.76-1.32l0.7-.16a1.32,1.32,0,0,1,1.34.62,2,2,0,0,0,1.38.48c0.7,0,1.16-.26,1.16-0.72,0-.3-0.2-0.5-0.84-0.72l-1.22-.44c-0.82-.28-3.08-1-3.08-3.1s1.72-3.34,4-3.34a3.92,3.92,0,0,1,3.38,1.52,0.87,0.87,0,0,1-.6,1.42l-0.64.18a1.26,1.26,0,0,1-1.3-.38,1.26,1.26,0,0,0-.86-0.3,0.76,0.76,0,0,0-.86.68,0.88,0.88,0,0,0,.82.7l1.24,0.48c2.18,0.76,3.08,1.88,3.1,3.24,0,2.24-2,3.3-4.34,3.3C168.6,153.06,167.1,152.36,166.4,150.92Z" transform="translate(-35.85 -35.22)"/>
    <path class="08150496-683e-48c4-802f-247b4090c4c4" d="M184.78,151.46v0.3a1,1,0,0,1-1.08,1.08h-1.44a1,1,0,0,1-1.08-1.08v-12.3a1,1,0,0,1,1.08-1.08h1.44a1,1,0,0,1,1.08,1.08v4.38a3.55,3.55,0,0,1,3.14-1.62c2.86,0,5,2.32,5,5.42s-2.1,5.42-5,5.42A3.58,3.58,0,0,1,184.78,151.46Zm4.5-3.82a2.3,2.3,0,1,0-2.26,2.62A2.36,2.36,0,0,0,189.28,147.64Z" transform="translate(-35.85 -35.22)"/>
    <path class="08150496-683e-48c4-802f-247b4090c4c4" d="M195.54,156.06L197.3,152l-3.76-8.28a0.81,0.81,0,0,1,.82-1.26H196a1.18,1.18,0,0,1,1.24.88l1.82,5,1.9-5a1.21,1.21,0,0,1,1.24-.86h1.52a0.81,0.81,0,0,1,.82,1.26l-5.64,12.8a1.22,1.22,0,0,1-1.26.82h-1.24A0.82,0.82,0,0,1,195.54,156.06Z" transform="translate(-35.85 -35.22)"/>
    <path class="08150496-683e-48c4-802f-247b4090c4c4" d="M211,149.32v-4.24H210a0.51,0.51,0,0,1-.56-0.56V143a0.51,0.51,0,0,1,.56-0.56h1.26l0.36-2a0.73,0.73,0,0,1,.82-0.68h1.26a0.67,0.67,0,0,1,.76.74v1.9h2.1a0.51,0.51,0,0,1,.56.56v1.52a0.51,0.51,0,0,1-.56.56h-2.1v4.3a0.7,0.7,0,0,0,.66.86,0.77,0.77,0,0,0,.72-0.88,2,2,0,0,0,0-.34c0-.38.08-0.58,0.46-0.58h1.34a0.57,0.57,0,0,1,.62.42,3.21,3.21,0,0,1,.14.8c0,2.56-1.82,3.4-3.66,3.4S211,152.28,211,149.32Z" transform="translate(-35.85 -35.22)"/>
    <path class="08150496-683e-48c4-802f-247b4090c4c4" d="M219.7,151.76v-12.3a1,1,0,0,1,1.08-1.08h1.44a1,1,0,0,1,1.08,1.08v4.46a3.14,3.14,0,0,1,3-1.7c3,0,3.7,2.5,3.7,4.58v5a1,1,0,0,1-1.08,1.08H227.5a1,1,0,0,1-1.08-1.08V147.1c0-1.12-.36-2-1.42-2s-1.7.88-1.7,2.26v4.42a1,1,0,0,1-1.08,1.08h-1.44A1,1,0,0,1,219.7,151.76Z" transform="translate(-35.85 -35.22)"/>
    <path class="08150496-683e-48c4-802f-247b4090c4c4" d="M231.52,147.68a5.42,5.42,0,0,1,5.76-5.46c3.12,0,5.56,1.88,5.62,5.2a0.89,0.89,0,0,1-1.1.88h-6.9c0,0.92,1.06,2,3,2a4.3,4.3,0,0,0,2.06-.52,1.07,1.07,0,0,1,1.5.26l0.28,0.36a1,1,0,0,1-.22,1.56,6.93,6.93,0,0,1-3.9,1.1C233.78,153.06,231.52,150.66,231.52,147.68Zm8.08-1.18a2.1,2.1,0,0,0-2.3-1.68A2.18,2.18,0,0,0,235,146.5h4.64Z" transform="translate(-35.85 -35.22)"/>
    <path class="08150496-683e-48c4-802f-247b4090c4c4" d="M249.4,151.76V139.91a1,1,0,0,1,1.08-1.08h0.94a1.51,1.51,0,0,1,1.32.68l4.88,6.78v-6.38a1,1,0,0,1,1.08-1.08h1.52a1,1,0,0,1,1.08,1.08v11.84a1,1,0,0,1-1.08,1.08H259.3a1.46,1.46,0,0,1-1.3-.68l-4.92-6.88v6.48a1,1,0,0,1-1.08,1.08h-1.52A1,1,0,0,1,249.4,151.76Z" transform="translate(-35.85 -35.22)"/>
    <path class="08150496-683e-48c4-802f-247b4090c4c4" d="M263.66,148.48v-5a1,1,0,0,1,1.08-1.08h1.44a1,1,0,0,1,1.08,1.08v4.66c0,1.12.38,2,1.44,2s1.7-.9,1.7-2.28v-4.42a1,1,0,0,1,1.08-1.08h1.44a1,1,0,0,1,1.08,1.08v8.24a1,1,0,0,1-1.08,1.08h-1.44a1,1,0,0,1-1.08-1.08v-0.38a3.19,3.19,0,0,1-3,1.68C264.36,153.06,263.66,150.56,263.66,148.48Z" transform="translate(-35.85 -35.22)"/>
    <path class="08150496-683e-48c4-802f-247b4090c4c4" d="M276.22,151.76v-8.24a1,1,0,0,1,1.08-1.08h1.44a1,1,0,0,1,1.08,1.08v0.4a2.64,2.64,0,0,1,2.6-1.7,3.13,3.13,0,0,1,2.88,1.64,3.57,3.57,0,0,1,3.26-1.64c2.78,0,3.74,2.52,3.74,4.6v4.94a1,1,0,0,1-1.08,1.08h-1.44a1,1,0,0,1-1.08-1.08V147c0-1.14-.36-1.94-1.22-1.94s-1.4.76-1.42,2.12v4.56a1,1,0,0,1-1.08,1.08h-1.44a1,1,0,0,1-1.08-1.08V147c0-1.14-.36-1.94-1.22-1.94s-1.42.8-1.42,2.18v4.5a1,1,0,0,1-1.08,1.08H277.3A1,1,0,0,1,276.22,151.76Z" transform="translate(-35.85 -35.22)"/>
    <path class="08150496-683e-48c4-802f-247b4090c4c4" d="M298,151.46v0.3a1,1,0,0,1-1.08,1.08h-1.44a1,1,0,0,1-1.08-1.08v-12.3a1,1,0,0,1,1.08-1.08h1.44a1,1,0,0,1,1.08,1.08v4.38a3.55,3.55,0,0,1,3.14-1.62c2.86,0,5,2.32,5,5.42s-2.1,5.42-5,5.42A3.58,3.58,0,0,1,298,151.46Zm4.5-3.82a2.3,2.3,0,1,0-2.26,2.62A2.36,2.36,0,0,0,302.46,147.64Z" transform="translate(-35.85 -35.22)"/>
    <path class="08150496-683e-48c4-802f-247b4090c4c4" d="M307.12,147.68a5.42,5.42,0,0,1,5.76-5.46c3.12,0,5.56,1.88,5.62,5.2a0.89,0.89,0,0,1-1.1.88h-6.9c0,0.92,1.06,2,3,2a4.3,4.3,0,0,0,2.06-.52,1.07,1.07,0,0,1,1.5.26l0.28,0.36a1,1,0,0,1-.22,1.56,6.93,6.93,0,0,1-3.9,1.1C309.38,153.06,307.12,150.66,307.12,147.68Zm8.08-1.18a2.1,2.1,0,0,0-2.3-1.68,2.18,2.18,0,0,0-2.34,1.68h4.64Z" transform="translate(-35.85 -35.22)"/>
    <path class="08150496-683e-48c4-802f-247b4090c4c4" d="M320.08,151.76v-8.24a1,1,0,0,1,1.08-1.08h1.32a1,1,0,0,1,1.08,1.08v1.16a2.73,2.73,0,0,1,2.64-2.46,1.62,1.62,0,0,1,.3,0,0.67,0.67,0,0,1,.62.82v1.8a0.67,0.67,0,0,1-.78.8,4,4,0,0,0-.48,0c-1.44,0-2.18,1-2.18,2.82v3.3a1,1,0,0,1-1.08,1.08h-1.44A1,1,0,0,1,320.08,151.76Z" transform="translate(-35.85 -35.22)"/>
    <path class="08150496-683e-48c4-802f-247b4090c4c4" d="M328,150.92a0.91,0.91,0,0,1,.76-1.32l0.7-.16a1.32,1.32,0,0,1,1.34.62,2,2,0,0,0,1.38.48c0.7,0,1.16-.26,1.16-0.72,0-.3-0.2-0.5-0.84-0.72l-1.22-.44c-0.82-.28-3.08-1-3.08-3.1s1.72-3.34,4-3.34a3.92,3.92,0,0,1,3.38,1.52,0.87,0.87,0,0,1-.6,1.42l-0.64.18A1.26,1.26,0,0,1,333,145a1.26,1.26,0,0,0-.86-0.3,0.76,0.76,0,0,0-.86.68,0.88,0.88,0,0,0,.82.7l1.24,0.48c2.18,0.76,3.08,1.88,3.1,3.24,0,2.24-2,3.3-4.34,3.3C330.16,153.06,328.66,152.36,328,150.92Z" transform="translate(-35.85 -35.22)"/>
  </g>
  <text id="food_label" text-anchor="middle" class="11a195df-7985-49cb-9dc9-8e4293d40d2a" transform="translate(162.295 163.04)">(Hover to examine item)</text>
  <g class="snap_subtext" style="visibility:hidden;">
    <path class="08150496-683e-48c4-802f-247b4090c4c4" d="M62.18,292.85v-2.54H61.61a0.3,0.3,0,0,1-.34-0.34v-0.91a0.3,0.3,0,0,1,.34-0.34h0.76l0.22-1.18a0.44,0.44,0,0,1,.49-0.41h0.76a0.4,0.4,0,0,1,.46.44v1.14h1.26a0.3,0.3,0,0,1,.34.34V290a0.3,0.3,0,0,1-.34.34H64.29v2.58a0.42,0.42,0,0,0,.4.52,0.46,0.46,0,0,0,.43-0.53,1.26,1.26,0,0,0,0-.2c0-.23,0-0.35.28-0.35h0.8a0.34,0.34,0,0,1,.37.25,2,2,0,0,1-2.11,2.52A2,2,0,0,1,62.18,292.85Z" transform="translate(-35.85 -35.22)"/>
    <path class="08150496-683e-48c4-802f-247b4090c4c4" d="M67.41,294.31v-7.38a0.58,0.58,0,0,1,.65-0.65h0.86a0.58,0.58,0,0,1,.65.65v2.67a1.88,1.88,0,0,1,1.81-1c1.8,0,2.22,1.5,2.22,2.75v3A0.58,0.58,0,0,1,73,295H72.09a0.58,0.58,0,0,1-.65-0.65v-2.79a1,1,0,0,0-.85-1.21,1.13,1.13,0,0,0-1,1.35v2.65a0.58,0.58,0,0,1-.65.65H68.06A0.58,0.58,0,0,1,67.41,294.31Z" transform="translate(-35.85 -35.22)"/>
    <path class="08150496-683e-48c4-802f-247b4090c4c4" d="M74.71,287.13a1.26,1.26,0,0,1,2.48,0A1.26,1.26,0,0,1,74.71,287.13Zm0.16,7.18v-4.94a0.58,0.58,0,0,1,.65-0.65h0.86a0.58,0.58,0,0,1,.65.65v4.94a0.58,0.58,0,0,1-.65.65H75.51A0.58,0.58,0,0,1,74.86,294.31Z" transform="translate(-35.85 -35.22)"/>
    <path class="08150496-683e-48c4-802f-247b4090c4c4" d="M78.13,293.81a0.54,0.54,0,0,1,.46-0.79l0.42-.1a0.79,0.79,0,0,1,.8.37,1.18,1.18,0,0,0,.83.29c0.42,0,.7-0.16.7-0.43s-0.12-.3-0.5-0.43l-0.73-.26c-0.49-.17-1.85-0.6-1.85-1.86a2.15,2.15,0,0,1,2.42-2,2.35,2.35,0,0,1,2,.91,0.52,0.52,0,0,1-.36.85l-0.38.11a0.76,0.76,0,0,1-.78-0.23,0.76,0.76,0,0,0-.52-0.18,0.45,0.45,0,0,0-.52.41,0.53,0.53,0,0,0,.49.42l0.74,0.29c1.31,0.46,1.85,1.13,1.86,1.94,0,1.34-1.21,2-2.6,2A2.56,2.56,0,0,1,78.13,293.81Z" transform="translate(-35.85 -35.22)"/>
    <path class="08150496-683e-48c4-802f-247b4090c4c4" d="M87.17,294.31v-7.1a0.58,0.58,0,0,1,.65-0.65h0.91a0.59,0.59,0,0,1,.65.65v7.1a0.59,0.59,0,0,1-.65.65H87.82A0.58,0.58,0,0,1,87.17,294.31Z" transform="translate(-35.85 -35.22)"/>
    <path class="08150496-683e-48c4-802f-247b4090c4c4" d="M91.27,292.85v-2.54H90.7a0.3,0.3,0,0,1-.34-0.34v-0.91a0.3,0.3,0,0,1,.34-0.34h0.76l0.22-1.18a0.44,0.44,0,0,1,.49-0.41h0.76a0.4,0.4,0,0,1,.46.44v1.14h1.26a0.3,0.3,0,0,1,.34.34V290a0.3,0.3,0,0,1-.34.34H93.38v2.58a0.42,0.42,0,0,0,.4.52,0.46,0.46,0,0,0,.43-0.53,1.26,1.26,0,0,0,0-.2c0-.23,0-0.35.28-0.35h0.8a0.34,0.34,0,0,1,.37.25,2,2,0,0,1-2.11,2.52A2,2,0,0,1,91.27,292.85Z" transform="translate(-35.85 -35.22)"/>
    <path class="08150496-683e-48c4-802f-247b4090c4c4" d="M96.14,291.87a3.25,3.25,0,0,1,3.45-3.27,3.1,3.1,0,0,1,3.37,3.12,0.53,0.53,0,0,1-.66.53H98.16a1.55,1.55,0,0,0,1.77,1.2,2.58,2.58,0,0,0,1.24-.31,0.64,0.64,0,0,1,.9.16l0.17,0.22a0.59,0.59,0,0,1-.13.94,4.15,4.15,0,0,1-2.34.66C97.49,295.09,96.14,293.65,96.14,291.87Zm4.85-.71a1.26,1.26,0,0,0-1.38-1,1.31,1.31,0,0,0-1.4,1H101Z" transform="translate(-35.85 -35.22)"/>
    <path class="08150496-683e-48c4-802f-247b4090c4c4" d="M103.91,294.31v-4.94a0.58,0.58,0,0,1,.65-0.65h0.86a0.58,0.58,0,0,1,.65.65v0.24a1.58,1.58,0,0,1,1.56-1,1.88,1.88,0,0,1,1.73,1,2.14,2.14,0,0,1,2-1c1.67,0,2.24,1.51,2.24,2.76v3a0.58,0.58,0,0,1-.65.65H112a0.58,0.58,0,0,1-.65-0.65v-2.84c0-.68-0.22-1.16-0.73-1.16s-0.84.46-.85,1.27v2.73a0.58,0.58,0,0,1-.65.65H108.3a0.58,0.58,0,0,1-.65-0.65v-2.84c0-.68-0.22-1.16-0.73-1.16s-0.85.48-.85,1.31v2.7a0.58,0.58,0,0,1-.65.65h-0.86A0.58,0.58,0,0,1,103.91,294.31Z" transform="translate(-35.85 -35.22)"/>
    <path class="08150496-683e-48c4-802f-247b4090c4c4" d="M120.82,292H120v2.27a0.59,0.59,0,0,1-.65.65H118.4a0.58,0.58,0,0,1-.65-0.65v-7.1a0.58,0.58,0,0,1,.65-0.65h3.29a2.72,2.72,0,0,1,2.89,2.85,2.43,2.43,0,0,1-1.8,2.49,1.41,1.41,0,0,0,1.13,1.45,1.47,1.47,0,0,0,.53-0.08c0.38-.12.5,0,0.68,0.34l0.14,0.29a0.58,0.58,0,0,1-.23.85,3.51,3.51,0,0,1-1.54.34C121.37,295.09,120.92,292.95,120.82,292Zm0.61-1.55a1,1,0,0,0,0-2.05H120v2.05h1.48Z" transform="translate(-35.85 -35.22)"/>
    <path class="08150496-683e-48c4-802f-247b4090c4c4" d="M125.68,291.84a3,3,0,0,1,3-3.25,2.14,2.14,0,0,1,1.9,1v-0.19a0.58,0.58,0,0,1,.65-0.65H132a0.58,0.58,0,0,1,.65.65v4.94a0.58,0.58,0,0,1-.65.65h-0.86a0.58,0.58,0,0,1-.65-0.65v-0.18a2.15,2.15,0,0,1-1.9,1A3,3,0,0,1,125.68,291.84Zm4.88,0a1.38,1.38,0,1,0-1.37,1.57A1.42,1.42,0,0,0,130.56,291.84Z" transform="translate(-35.85 -35.22)"/>
    <path class="08150496-683e-48c4-802f-247b4090c4c4" d="M134,294.31v-4.94a0.58,0.58,0,0,1,.65-0.65h0.86a0.58,0.58,0,0,1,.65.65v0.24a1.88,1.88,0,0,1,1.81-1c1.8,0,2.22,1.5,2.22,2.75v3a0.58,0.58,0,0,1-.65.65h-0.86a0.58,0.58,0,0,1-.65-0.65v-2.79a1,1,0,0,0-.85-1.21,1.13,1.13,0,0,0-1,1.35v2.65a0.58,0.58,0,0,1-.65.65h-0.86A0.58,0.58,0,0,1,134,294.31Z" transform="translate(-35.85 -35.22)"/>
    <path class="08150496-683e-48c4-802f-247b4090c4c4" d="M144.35,293.53l-0.71-1.42v2.19a0.58,0.58,0,0,1-.65.65h-0.86a0.58,0.58,0,0,1-.65-0.65v-7.38a0.58,0.58,0,0,1,.65-0.65H143a0.58,0.58,0,0,1,.65.65v4.31l1.38-2.1a0.84,0.84,0,0,1,.77-0.42h1c0.54,0,.72.35,0.4,0.79l-1.57,2.1,0.71,1.18a0.89,0.89,0,0,0,.82.55,1,1,0,0,0,.29,0,0.43,0.43,0,0,1,.56.22l0.29,0.6a0.46,0.46,0,0,1-.25.64,2.82,2.82,0,0,1-1.37.35A2.36,2.36,0,0,1,144.35,293.53Z" transform="translate(-35.85 -35.22)"/>
    <path class="08150496-683e-48c4-802f-247b4090c4c4" d="M148.66,293.81a0.54,0.54,0,0,1,.46-0.79l0.42-.1a0.79,0.79,0,0,1,.8.37,1.18,1.18,0,0,0,.83.29c0.42,0,.7-0.16.7-0.43s-0.12-.3-0.5-0.43l-0.73-.26c-0.49-.17-1.85-0.6-1.85-1.86a2.15,2.15,0,0,1,2.42-2,2.35,2.35,0,0,1,2,.91,0.52,0.52,0,0,1-.36.85l-0.38.11a0.76,0.76,0,0,1-.78-0.23,0.76,0.76,0,0,0-.52-0.18,0.45,0.45,0,0,0-.52.41,0.53,0.53,0,0,0,.49.42l0.74,0.29c1.31,0.46,1.85,1.13,1.86,1.94,0,1.34-1.21,2-2.6,2A2.56,2.56,0,0,1,148.66,293.81Z" transform="translate(-35.85 -35.22)"/>
  </g>
  <g class="snap_subtext" style="visibility:hidden;">
    <path class="08150496-683e-48c4-802f-247b4090c4c4" d="M241.69,292.85v-2.54h-0.56a0.3,0.3,0,0,1-.34-0.34v-0.91a0.3,0.3,0,0,1,.34-0.34h0.75l0.22-1.18a0.44,0.44,0,0,1,.49-0.41h0.76a0.4,0.4,0,0,1,.46.44v1.14h1.26a0.3,0.3,0,0,1,.34.34V290a0.3,0.3,0,0,1-.34.34H243.8v2.58a0.42,0.42,0,0,0,.4.52,0.46,0.46,0,0,0,.43-0.53,1.26,1.26,0,0,0,0-.2c0-.23,0-0.35.28-0.35h0.8a0.34,0.34,0,0,1,.37.25,2,2,0,0,1,.08.48,1.94,1.94,0,0,1-2.2,2A2,2,0,0,1,241.69,292.85Z" transform="translate(-35.85 -35.22)"/>
    <path class="08150496-683e-48c4-802f-247b4090c4c4" d="M246.92,294.31v-7.38a0.58,0.58,0,0,1,.65-0.65h0.86a0.58,0.58,0,0,1,.65.65v2.67a1.88,1.88,0,0,1,1.81-1c1.8,0,2.22,1.5,2.22,2.75v3a0.58,0.58,0,0,1-.65.65h-0.86a0.58,0.58,0,0,1-.65-0.65v-2.79a1,1,0,0,0-.85-1.21,1.13,1.13,0,0,0-1,1.35v2.65a0.58,0.58,0,0,1-.65.65h-0.86A0.58,0.58,0,0,1,246.92,294.31Z" transform="translate(-35.85 -35.22)"/>
    <path class="08150496-683e-48c4-802f-247b4090c4c4" d="M254.21,287.13a1.26,1.26,0,0,1,2.48,0A1.26,1.26,0,0,1,254.21,287.13Zm0.16,7.18v-4.94a0.58,0.58,0,0,1,.65-0.65h0.86a0.58,0.58,0,0,1,.65.65v4.94a0.58,0.58,0,0,1-.65.65H255A0.58,0.58,0,0,1,254.37,294.31Z" transform="translate(-35.85 -35.22)"/>
    <path class="08150496-683e-48c4-802f-247b4090c4c4" d="M257.63,293.81a0.54,0.54,0,0,1,.46-0.79l0.42-.1a0.79,0.79,0,0,1,.8.37,1.18,1.18,0,0,0,.83.29c0.42,0,.7-0.16.7-0.43s-0.12-.3-0.5-0.43l-0.73-.26c-0.49-.17-1.85-0.6-1.85-1.86a2.15,2.15,0,0,1,2.42-2,2.35,2.35,0,0,1,2,.91,0.52,0.52,0,0,1-.36.85l-0.38.11a0.76,0.76,0,0,1-.78-0.23,0.75,0.75,0,0,0-.52-0.18,0.45,0.45,0,0,0-.52.41,0.53,0.53,0,0,0,.49.42l0.74,0.29c1.31,0.46,1.85,1.13,1.86,1.94,0,1.34-1.21,2-2.6,2A2.56,2.56,0,0,1,257.63,293.81Z" transform="translate(-35.85 -35.22)"/>
    <path class="08150496-683e-48c4-802f-247b4090c4c4" d="M266.68,294.31v-7.1a0.58,0.58,0,0,1,.65-0.65h0.91a0.59,0.59,0,0,1,.65.65v7.1a0.59,0.59,0,0,1-.65.65h-0.91A0.58,0.58,0,0,1,266.68,294.31Z" transform="translate(-35.85 -35.22)"/>
    <path class="08150496-683e-48c4-802f-247b4090c4c4" d="M270.77,292.85v-2.54h-0.56a0.3,0.3,0,0,1-.34-0.34v-0.91a0.3,0.3,0,0,1,.34-0.34H271l0.22-1.18a0.44,0.44,0,0,1,.49-0.41h0.75a0.4,0.4,0,0,1,.46.44v1.14h1.26a0.3,0.3,0,0,1,.34.34V290a0.3,0.3,0,0,1-.34.34h-1.26v2.58a0.42,0.42,0,0,0,.4.52,0.46,0.46,0,0,0,.43-0.53,1.26,1.26,0,0,0,0-.2c0-.23,0-0.35.28-0.35h0.8a0.34,0.34,0,0,1,.37.25,2,2,0,0,1-2.11,2.52A2,2,0,0,1,270.77,292.85Z" transform="translate(-35.85 -35.22)"/>
    <path class="08150496-683e-48c4-802f-247b4090c4c4" d="M275.65,291.87a3.25,3.25,0,0,1,3.45-3.27,3.1,3.1,0,0,1,3.37,3.12,0.53,0.53,0,0,1-.66.53h-4.14a1.55,1.55,0,0,0,1.78,1.2,2.58,2.58,0,0,0,1.24-.31,0.64,0.64,0,0,1,.9.16l0.17,0.22a0.59,0.59,0,0,1-.13.94,4.15,4.15,0,0,1-2.34.66C277,295.09,275.65,293.65,275.65,291.87Zm4.84-.71a1.26,1.26,0,0,0-1.38-1,1.31,1.31,0,0,0-1.4,1h2.78Z" transform="translate(-35.85 -35.22)"/>
    <path class="08150496-683e-48c4-802f-247b4090c4c4" d="M283.42,294.31v-4.94a0.58,0.58,0,0,1,.65-0.65h0.86a0.58,0.58,0,0,1,.65.65v0.24a1.58,1.58,0,0,1,1.56-1,1.88,1.88,0,0,1,1.73,1,2.14,2.14,0,0,1,2-1c1.67,0,2.24,1.51,2.24,2.76v3a0.58,0.58,0,0,1-.65.65h-0.86a0.58,0.58,0,0,1-.65-0.65v-2.84c0-.68-0.22-1.16-0.73-1.16s-0.84.46-.85,1.27v2.73a0.58,0.58,0,0,1-.65.65h-0.86a0.58,0.58,0,0,1-.65-0.65v-2.84c0-.68-0.22-1.16-0.73-1.16s-0.85.48-.85,1.31v2.7a0.58,0.58,0,0,1-.65.65h-0.86A0.58,0.58,0,0,1,283.42,294.31Z" transform="translate(-35.85 -35.22)"/>
    <path class="08150496-683e-48c4-802f-247b4090c4c4" d="M300.33,292h-0.86v2.27a0.59,0.59,0,0,1-.65.65H297.9a0.58,0.58,0,0,1-.65-0.65v-7.1a0.58,0.58,0,0,1,.65-0.65h3.29a2.72,2.72,0,0,1,2.89,2.85,2.43,2.43,0,0,1-1.8,2.49,1.41,1.41,0,0,0,1.13,1.45,1.46,1.46,0,0,0,.53-0.08c0.38-.12.5,0,0.68,0.34l0.14,0.29a0.58,0.58,0,0,1-.23.85,3.51,3.51,0,0,1-1.54.34C300.88,295.09,300.42,292.95,300.33,292Zm0.61-1.55a1,1,0,0,0,0-2.05h-1.48v2.05h1.48Z" transform="translate(-35.85 -35.22)"/>
    <path class="08150496-683e-48c4-802f-247b4090c4c4" d="M305.19,291.84a3,3,0,0,1,3-3.25,2.14,2.14,0,0,1,1.89,1v-0.19a0.58,0.58,0,0,1,.65-0.65h0.86a0.58,0.58,0,0,1,.65.65v4.94a0.58,0.58,0,0,1-.65.65h-0.86a0.58,0.58,0,0,1-.65-0.65v-0.18a2.15,2.15,0,0,1-1.89,1A3,3,0,0,1,305.19,291.84Zm4.88,0a1.38,1.38,0,1,0-1.37,1.57A1.42,1.42,0,0,0,310.07,291.84Z" transform="translate(-35.85 -35.22)"/>
    <path class="08150496-683e-48c4-802f-247b4090c4c4" d="M313.54,294.31v-4.94a0.58,0.58,0,0,1,.65-0.65h0.86a0.58,0.58,0,0,1,.65.65v0.24a1.88,1.88,0,0,1,1.81-1c1.8,0,2.22,1.5,2.22,2.75v3a0.58,0.58,0,0,1-.65.65h-0.86a0.58,0.58,0,0,1-.65-0.65v-2.79a1,1,0,0,0-.85-1.21,1.13,1.13,0,0,0-1,1.35v2.65a0.58,0.58,0,0,1-.65.65h-0.86A0.58,0.58,0,0,1,313.54,294.31Z" transform="translate(-35.85 -35.22)"/>
    <path class="08150496-683e-48c4-802f-247b4090c4c4" d="M323.86,293.53l-0.71-1.42v2.19a0.58,0.58,0,0,1-.65.65h-0.86a0.58,0.58,0,0,1-.65-0.65v-7.38a0.58,0.58,0,0,1,.65-0.65h0.86a0.58,0.58,0,0,1,.65.65v4.31l1.38-2.1a0.84,0.84,0,0,1,.77-0.42h1c0.54,0,.72.35,0.4,0.79l-1.57,2.1,0.71,1.18a0.89,0.89,0,0,0,.82.55,1,1,0,0,0,.29,0,0.43,0.43,0,0,1,.56.22l0.29,0.6a0.46,0.46,0,0,1-.25.64,2.82,2.82,0,0,1-1.37.35A2.36,2.36,0,0,1,323.86,293.53Z" transform="translate(-35.85 -35.22)"/>
    <path class="08150496-683e-48c4-802f-247b4090c4c4" d="M328.17,293.81a0.54,0.54,0,0,1,.46-0.79l0.42-.1a0.79,0.79,0,0,1,.8.37,1.18,1.18,0,0,0,.83.29c0.42,0,.7-0.16.7-0.43s-0.12-.3-0.5-0.43l-0.73-.26c-0.49-.17-1.85-0.6-1.85-1.86a2.15,2.15,0,0,1,2.42-2,2.35,2.35,0,0,1,2,.91,0.52,0.52,0,0,1-.36.85l-0.38.11a0.76,0.76,0,0,1-.78-0.23,0.75,0.75,0,0,0-.52-0.18,0.45,0.45,0,0,0-.52.41,0.53,0.53,0,0,0,.49.42l0.74,0.29c1.31,0.46,1.85,1.13,1.86,1.94,0,1.34-1.21,2-2.6,2A2.56,2.56,0,0,1,328.17,293.81Z" transform="translate(-35.85 -35.22)"/>
  </g>
  <g class="snap_subtext" style="visibility:hidden;">
    <path class="08150496-683e-48c4-802f-247b4090c4c4" d="M62.32,388.57a3,3,0,0,1,3-3.25,2.14,2.14,0,0,1,1.9,1V386.1a0.58,0.58,0,0,1,.65-0.65h0.86a0.58,0.58,0,0,1,.65.65V391a0.58,0.58,0,0,1-.65.65H67.82a0.58,0.58,0,0,1-.65-0.65v-0.18a2.16,2.16,0,0,1-1.9,1A3,3,0,0,1,62.32,388.57Zm4.88,0a1.38,1.38,0,1,0-1.37,1.57A1.42,1.42,0,0,0,67.2,388.57Z" transform="translate(-35.85 -35.22)"/>
    <path class="08150496-683e-48c4-802f-247b4090c4c4" d="M70.67,391V386.1a0.58,0.58,0,0,1,.65-0.65h0.86a0.58,0.58,0,0,1,.65.65v0.24a1.88,1.88,0,0,1,1.81-1c1.8,0,2.22,1.5,2.22,2.75v3a0.58,0.58,0,0,1-.65.65H75.35A0.58,0.58,0,0,1,74.7,391v-2.79a1,1,0,0,0-.85-1.21,1.13,1.13,0,0,0-1,1.36V391a0.58,0.58,0,0,1-.65.65H71.32A0.58,0.58,0,0,1,70.67,391Z" transform="translate(-35.85 -35.22)"/>
    <path class="08150496-683e-48c4-802f-247b4090c4c4" d="M77.78,388.57a3,3,0,0,1,3-3.25,2.13,2.13,0,0,1,1.88,1v-2.63a0.58,0.58,0,0,1,.65-0.65h0.86a0.58,0.58,0,0,1,.65.65V391a0.58,0.58,0,0,1-.65.65H83.29a0.58,0.58,0,0,1-.65-0.65v-0.18a2.15,2.15,0,0,1-1.88,1A3,3,0,0,1,77.78,388.57Zm4.89,0A1.43,1.43,0,0,0,81.3,387a1.59,1.59,0,0,0,0,3.14A1.43,1.43,0,0,0,82.68,388.57Z" transform="translate(-35.85 -35.22)"/>
    <path class="08150496-683e-48c4-802f-247b4090c4c4" d="M88.93,391V386.1a0.58,0.58,0,0,1,.65-0.65h0.79a0.59,0.59,0,0,1,.65.65v0.7a1.63,1.63,0,0,1,1.58-1.48,1,1,0,0,1,.18,0,0.4,0.4,0,0,1,.37.49v1.08a0.4,0.4,0,0,1-.47.48H92.4c-0.86,0-1.31.58-1.31,1.69v2a0.58,0.58,0,0,1-.65.65H89.58A0.58,0.58,0,0,1,88.93,391Z" transform="translate(-35.85 -35.22)"/>
    <path class="08150496-683e-48c4-802f-247b4090c4c4" d="M93.52,388.59A3.25,3.25,0,0,1,97,385.32a3.1,3.1,0,0,1,3.37,3.12,0.53,0.53,0,0,1-.66.53H95.54a1.55,1.55,0,0,0,1.77,1.2,2.57,2.57,0,0,0,1.24-.31,0.64,0.64,0,0,1,.9.16l0.17,0.22a0.59,0.59,0,0,1-.13.94,4.15,4.15,0,0,1-2.34.66C94.87,391.82,93.52,390.38,93.52,388.59Zm4.85-.71a1.26,1.26,0,0,0-1.38-1,1.31,1.31,0,0,0-1.4,1h2.78Z" transform="translate(-35.85 -35.22)"/>
    <path class="08150496-683e-48c4-802f-247b4090c4c4" d="M101.29,393.72V386.1a0.58,0.58,0,0,1,.65-0.65h0.86a0.58,0.58,0,0,1,.65.65v0.18a2.12,2.12,0,0,1,1.88-1,3.26,3.26,0,0,1,0,6.5,2.12,2.12,0,0,1-1.88-1v2.87a0.58,0.58,0,0,1-.65.65h-0.86A0.58,0.58,0,0,1,101.29,393.72Zm4.85-5.16a1.41,1.41,0,0,0-1.34-1.57,1.58,1.58,0,0,0,0,3.14A1.4,1.4,0,0,0,106.14,388.57Z" transform="translate(-35.85 -35.22)"/>
    <path class="08150496-683e-48c4-802f-247b4090c4c4" d="M109.29,391V386.1a0.58,0.58,0,0,1,.65-0.65h0.79a0.59,0.59,0,0,1,.65.65v0.7a1.63,1.63,0,0,1,1.58-1.48,1,1,0,0,1,.18,0,0.4,0.4,0,0,1,.37.49v1.08a0.4,0.4,0,0,1-.47.48h-0.29c-0.86,0-1.31.58-1.31,1.69v2a0.58,0.58,0,0,1-.65.65h-0.86A0.58,0.58,0,0,1,109.29,391Z" transform="translate(-35.85 -35.22)"/>
    <path class="08150496-683e-48c4-802f-247b4090c4c4" d="M113.88,388.59a3.25,3.25,0,0,1,3.45-3.27,3.1,3.1,0,0,1,3.37,3.12,0.53,0.53,0,0,1-.66.53h-4.14a1.55,1.55,0,0,0,1.77,1.2,2.57,2.57,0,0,0,1.24-.31,0.64,0.64,0,0,1,.9.16l0.17,0.22a0.59,0.59,0,0,1-.13.94,4.15,4.15,0,0,1-2.34.66C115.23,391.82,113.88,390.38,113.88,388.59Zm4.85-.71a1.26,1.26,0,0,0-1.38-1,1.31,1.31,0,0,0-1.4,1h2.78Z" transform="translate(-35.85 -35.22)"/>
    <path class="08150496-683e-48c4-802f-247b4090c4c4" d="M121.4,390.53a0.54,0.54,0,0,1,.46-0.79l0.42-.1a0.79,0.79,0,0,1,.8.37,1.18,1.18,0,0,0,.83.29c0.42,0,.7-0.16.7-0.43s-0.12-.3-0.5-0.43l-0.73-.26c-0.49-.17-1.85-0.6-1.85-1.86a2.15,2.15,0,0,1,2.42-2,2.35,2.35,0,0,1,2,.91,0.52,0.52,0,0,1-.36.85l-0.38.11a0.76,0.76,0,0,1-.78-0.23,0.76,0.76,0,0,0-.52-0.18,0.45,0.45,0,0,0-.52.41,0.53,0.53,0,0,0,.49.42l0.74,0.29c1.31,0.46,1.85,1.13,1.86,1.94,0,1.34-1.21,2-2.6,2A2.56,2.56,0,0,1,121.4,390.53Z" transform="translate(-35.85 -35.22)"/>
    <path class="08150496-683e-48c4-802f-247b4090c4c4" d="M127.14,388.59a3.25,3.25,0,0,1,3.45-3.27,3.1,3.1,0,0,1,3.37,3.12,0.53,0.53,0,0,1-.66.53h-4.14a1.55,1.55,0,0,0,1.77,1.2,2.57,2.57,0,0,0,1.24-.31,0.64,0.64,0,0,1,.9.16l0.17,0.22a0.59,0.59,0,0,1-.13.94,4.15,4.15,0,0,1-2.34.66C128.49,391.82,127.14,390.38,127.14,388.59Zm4.85-.71a1.26,1.26,0,0,0-1.38-1,1.31,1.31,0,0,0-1.4,1H132Z" transform="translate(-35.85 -35.22)"/>
    <path class="08150496-683e-48c4-802f-247b4090c4c4" d="M134.92,391V386.1a0.58,0.58,0,0,1,.65-0.65h0.86a0.58,0.58,0,0,1,.65.65v0.24a1.88,1.88,0,0,1,1.81-1c1.8,0,2.22,1.5,2.22,2.75v3a0.58,0.58,0,0,1-.65.65h-0.86a0.58,0.58,0,0,1-.65-0.65v-2.79a1,1,0,0,0-.85-1.21,1.13,1.13,0,0,0-1,1.36V391a0.58,0.58,0,0,1-.65.65h-0.86A0.58,0.58,0,0,1,134.92,391Z" transform="translate(-35.85 -35.22)"/>
    <path class="08150496-683e-48c4-802f-247b4090c4c4" d="M142.75,389.58V387h-0.56a0.3,0.3,0,0,1-.34-0.34v-0.91a0.3,0.3,0,0,1,.34-0.34h0.76l0.22-1.18a0.44,0.44,0,0,1,.49-0.41h0.76a0.4,0.4,0,0,1,.46.44v1.14h1.26a0.3,0.3,0,0,1,.34.34v0.91a0.3,0.3,0,0,1-.34.34h-1.26v2.58a0.42,0.42,0,0,0,.4.52,0.46,0.46,0,0,0,.43-0.53,1.25,1.25,0,0,0,0-.2c0-.23,0-0.35.28-0.35h0.8a0.34,0.34,0,0,1,.37.25,2,2,0,0,1-2.11,2.52A2,2,0,0,1,142.75,389.58Z" transform="translate(-35.85 -35.22)"/>
    <path class="08150496-683e-48c4-802f-247b4090c4c4" d="M147.73,390.53a0.54,0.54,0,0,1,.46-0.79l0.42-.1a0.79,0.79,0,0,1,.8.37,1.18,1.18,0,0,0,.83.29c0.42,0,.7-0.16.7-0.43s-0.12-.3-0.5-0.43l-0.73-.26c-0.49-.17-1.85-0.6-1.85-1.86a2.15,2.15,0,0,1,2.42-2,2.35,2.35,0,0,1,2,.91,0.52,0.52,0,0,1-.36.85l-0.38.11a0.76,0.76,0,0,1-.78-0.23,0.76,0.76,0,0,0-.52-0.18,0.45,0.45,0,0,0-.52.41,0.53,0.53,0,0,0,.49.42L151,387.9c1.31,0.46,1.85,1.13,1.86,1.94,0,1.34-1.21,2-2.6,2A2.56,2.56,0,0,1,147.73,390.53Z" transform="translate(-35.85 -35.22)"/>
  </g>
  <g class="snap_subtext" style="visibility:hidden;">
    <path class="08150496-683e-48c4-802f-247b4090c4c4" d="M241.82,388.57a3,3,0,0,1,3-3.25,2.14,2.14,0,0,1,1.9,1V386.1a0.58,0.58,0,0,1,.65-0.65h0.86a0.58,0.58,0,0,1,.65.65V391a0.58,0.58,0,0,1-.65.65h-0.86a0.58,0.58,0,0,1-.65-0.65v-0.18a2.16,2.16,0,0,1-1.9,1A3,3,0,0,1,241.82,388.57Zm4.88,0a1.38,1.38,0,1,0-1.37,1.57A1.42,1.42,0,0,0,246.71,388.57Z" transform="translate(-35.85 -35.22)"/>
    <path class="08150496-683e-48c4-802f-247b4090c4c4" d="M250.18,391V386.1a0.58,0.58,0,0,1,.65-0.65h0.86a0.58,0.58,0,0,1,.65.65v0.24a1.88,1.88,0,0,1,1.81-1c1.8,0,2.22,1.5,2.22,2.75v3a0.58,0.58,0,0,1-.65.65h-0.86a0.58,0.58,0,0,1-.65-0.65v-2.79a1,1,0,0,0-.85-1.21,1.13,1.13,0,0,0-1,1.36V391a0.58,0.58,0,0,1-.65.65h-0.86A0.58,0.58,0,0,1,250.18,391Z" transform="translate(-35.85 -35.22)"/>
    <path class="08150496-683e-48c4-802f-247b4090c4c4" d="M257.29,388.57a3,3,0,0,1,3-3.25,2.13,2.13,0,0,1,1.88,1v-2.63a0.58,0.58,0,0,1,.65-0.65h0.86a0.58,0.58,0,0,1,.65.65V391a0.58,0.58,0,0,1-.65.65H262.8a0.58,0.58,0,0,1-.65-0.65v-0.18a2.15,2.15,0,0,1-1.88,1A3,3,0,0,1,257.29,388.57Zm4.89,0a1.43,1.43,0,0,0-1.38-1.57,1.59,1.59,0,0,0,0,3.14A1.43,1.43,0,0,0,262.19,388.57Z" transform="translate(-35.85 -35.22)"/>
    <path class="08150496-683e-48c4-802f-247b4090c4c4" d="M268.44,391V386.1a0.58,0.58,0,0,1,.65-0.65h0.79a0.59,0.59,0,0,1,.65.65v0.7a1.63,1.63,0,0,1,1.58-1.48,1,1,0,0,1,.18,0,0.4,0.4,0,0,1,.37.49v1.08a0.4,0.4,0,0,1-.47.48h-0.29c-0.86,0-1.31.58-1.31,1.69v2a0.58,0.58,0,0,1-.65.65h-0.86A0.58,0.58,0,0,1,268.44,391Z" transform="translate(-35.85 -35.22)"/>
    <path class="08150496-683e-48c4-802f-247b4090c4c4" d="M273,388.59a3.25,3.25,0,0,1,3.45-3.27,3.1,3.1,0,0,1,3.37,3.12,0.53,0.53,0,0,1-.66.53h-4.14a1.55,1.55,0,0,0,1.77,1.2,2.57,2.57,0,0,0,1.24-.31,0.64,0.64,0,0,1,.9.16l0.17,0.22a0.59,0.59,0,0,1-.13.94,4.15,4.15,0,0,1-2.34.66C274.38,391.82,273,390.38,273,388.59Zm4.85-.71a1.26,1.26,0,0,0-1.38-1,1.31,1.31,0,0,0-1.4,1h2.78Z" transform="translate(-35.85 -35.22)"/>
    <path class="08150496-683e-48c4-802f-247b4090c4c4" d="M280.8,393.72V386.1a0.58,0.58,0,0,1,.65-0.65h0.86a0.58,0.58,0,0,1,.65.65v0.18a2.12,2.12,0,0,1,1.88-1,3.26,3.26,0,0,1,0,6.5,2.12,2.12,0,0,1-1.88-1v2.87a0.58,0.58,0,0,1-.65.65h-0.86A0.58,0.58,0,0,1,280.8,393.72Zm4.85-5.16A1.41,1.41,0,0,0,284.3,387a1.58,1.58,0,0,0,0,3.14A1.4,1.4,0,0,0,285.64,388.57Z" transform="translate(-35.85 -35.22)"/>
    <path class="08150496-683e-48c4-802f-247b4090c4c4" d="M288.8,391V386.1a0.58,0.58,0,0,1,.65-0.65h0.79a0.59,0.59,0,0,1,.65.65v0.7a1.63,1.63,0,0,1,1.58-1.48,1,1,0,0,1,.18,0,0.4,0.4,0,0,1,.37.49v1.08a0.4,0.4,0,0,1-.47.48h-0.29c-0.86,0-1.31.58-1.31,1.69v2a0.58,0.58,0,0,1-.65.65h-0.86A0.58,0.58,0,0,1,288.8,391Z" transform="translate(-35.85 -35.22)"/>
    <path class="08150496-683e-48c4-802f-247b4090c4c4" d="M293.39,388.59a3.25,3.25,0,0,1,3.45-3.27,3.1,3.1,0,0,1,3.37,3.12,0.53,0.53,0,0,1-.66.53h-4.14a1.55,1.55,0,0,0,1.78,1.2,2.57,2.57,0,0,0,1.24-.31,0.65,0.65,0,0,1,.9.16l0.17,0.22a0.59,0.59,0,0,1-.13.94,4.16,4.16,0,0,1-2.34.66C294.74,391.82,293.39,390.38,293.39,388.59Zm4.84-.71a1.26,1.26,0,0,0-1.38-1,1.31,1.31,0,0,0-1.4,1h2.78Z" transform="translate(-35.85 -35.22)"/>
    <path class="08150496-683e-48c4-802f-247b4090c4c4" d="M300.91,390.53a0.54,0.54,0,0,1,.46-0.79l0.42-.1a0.79,0.79,0,0,1,.8.37,1.18,1.18,0,0,0,.83.29c0.42,0,.7-0.16.7-0.43s-0.12-.3-0.5-0.43l-0.73-.26c-0.49-.17-1.85-0.6-1.85-1.86a2.15,2.15,0,0,1,2.42-2,2.35,2.35,0,0,1,2,.91,0.52,0.52,0,0,1-.36.85l-0.38.11A0.76,0.76,0,0,1,304,387a0.76,0.76,0,0,0-.52-0.18,0.45,0.45,0,0,0-.52.41,0.53,0.53,0,0,0,.49.42l0.74,0.29c1.31,0.46,1.85,1.13,1.86,1.94,0,1.34-1.21,2-2.6,2A2.56,2.56,0,0,1,300.91,390.53Z" transform="translate(-35.85 -35.22)"/>
    <path class="08150496-683e-48c4-802f-247b4090c4c4" d="M306.65,388.59a3.25,3.25,0,0,1,3.45-3.27,3.1,3.1,0,0,1,3.37,3.12,0.53,0.53,0,0,1-.66.53h-4.14a1.55,1.55,0,0,0,1.78,1.2,2.57,2.57,0,0,0,1.24-.31,0.65,0.65,0,0,1,.9.16l0.17,0.22a0.59,0.59,0,0,1-.13.94,4.16,4.16,0,0,1-2.34.66C308,391.82,306.65,390.38,306.65,388.59Zm4.84-.71a1.26,1.26,0,0,0-1.38-1,1.31,1.31,0,0,0-1.4,1h2.78Z" transform="translate(-35.85 -35.22)"/>
    <path class="08150496-683e-48c4-802f-247b4090c4c4" d="M314.42,391V386.1a0.58,0.58,0,0,1,.65-0.65h0.86a0.58,0.58,0,0,1,.65.65v0.24a1.88,1.88,0,0,1,1.81-1c1.8,0,2.22,1.5,2.22,2.75v3a0.58,0.58,0,0,1-.65.65H319.1a0.58,0.58,0,0,1-.65-0.65v-2.79a1,1,0,0,0-.85-1.21,1.13,1.13,0,0,0-1,1.36V391a0.58,0.58,0,0,1-.65.65h-0.86A0.58,0.58,0,0,1,314.42,391Z" transform="translate(-35.85 -35.22)"/>
    <path class="08150496-683e-48c4-802f-247b4090c4c4" d="M322.26,389.58V387H321.7a0.3,0.3,0,0,1-.34-0.34v-0.91a0.3,0.3,0,0,1,.34-0.34h0.75l0.22-1.18a0.44,0.44,0,0,1,.49-0.41h0.76a0.4,0.4,0,0,1,.46.44v1.14h1.26a0.3,0.3,0,0,1,.34.34v0.91a0.3,0.3,0,0,1-.34.34h-1.26v2.58a0.42,0.42,0,0,0,.4.52,0.46,0.46,0,0,0,.43-0.53,1.25,1.25,0,0,0,0-.2c0-.23,0-0.35.28-0.35h0.8a0.34,0.34,0,0,1,.37.25,2,2,0,0,1,.08.48,1.94,1.94,0,0,1-2.2,2A2,2,0,0,1,322.26,389.58Z" transform="translate(-35.85 -35.22)"/>
    <path class="08150496-683e-48c4-802f-247b4090c4c4" d="M327.24,390.53a0.54,0.54,0,0,1,.46-0.79l0.42-.1a0.79,0.79,0,0,1,.8.37,1.18,1.18,0,0,0,.83.29c0.42,0,.7-0.16.7-0.43s-0.12-.3-0.5-0.43l-0.73-.26c-0.49-.17-1.85-0.6-1.85-1.86a2.15,2.15,0,0,1,2.42-2,2.35,2.35,0,0,1,2,.91,0.52,0.52,0,0,1-.36.85l-0.38.11a0.76,0.76,0,0,1-.78-0.23,0.75,0.75,0,0,0-.52-0.18,0.45,0.45,0,0,0-.52.41,0.53,0.53,0,0,0,.49.42l0.74,0.29c1.31,0.46,1.85,1.13,1.86,1.94,0,1.34-1.21,2-2.6,2A2.56,2.56,0,0,1,327.24,390.53Z" transform="translate(-35.85 -35.22)"/>
  </g>
  <g class="snap_subtext" style="visibility:hidden;">
    <path class="08150496-683e-48c4-802f-247b4090c4c4" d="M53.64,489.33a3.54,3.54,0,1,1,3.53,3.25A3.33,3.33,0,0,1,53.64,489.33Zm5,0a1.51,1.51,0,1,0-1.51,1.55A1.48,1.48,0,0,0,58.68,489.33Z" transform="translate(-35.85 -35.22)"/>
    <path class="08150496-683e-48c4-802f-247b4090c4c4" d="M62,491.8v-4H61.54a0.3,0.3,0,0,1-.34-0.34v-0.79a0.3,0.3,0,0,1,.34-0.34H62V486a2.17,2.17,0,0,1,2.42-2.33c1,0,2.16.43,2.16,1.69a0.93,0.93,0,0,1,0,.18,0.3,0.3,0,0,1-.32.29h-1a0.23,0.23,0,0,1-.25-0.23v-0.06a0.4,0.4,0,0,0-.44-0.35,0.46,0.46,0,0,0-.47.53v0.64h1a0.31,0.31,0,0,1,.34.34v0.79a0.31,0.31,0,0,1-.34.34H64.13v4a0.58,0.58,0,0,1-.65.65H62.66A0.59,0.59,0,0,1,62,491.8Z" transform="translate(-35.85 -35.22)"/>
    <path class="08150496-683e-48c4-802f-247b4090c4c4" d="M69.2,491.8v-7.38a0.58,0.58,0,0,1,.65-0.65h0.86a0.58,0.58,0,0,1,.65.65v2.67a1.88,1.88,0,0,1,1.81-1c1.8,0,2.22,1.5,2.22,2.75v3a0.58,0.58,0,0,1-.65.65H73.88a0.58,0.58,0,0,1-.65-0.65V489a1,1,0,0,0-.85-1.21,1.13,1.13,0,0,0-1,1.35v2.65a0.58,0.58,0,0,1-.65.65H69.85A0.58,0.58,0,0,1,69.2,491.8Z" transform="translate(-35.85 -35.22)"/>
    <path class="08150496-683e-48c4-802f-247b4090c4c4" d="M76.28,489.33a3.54,3.54,0,1,1,3.53,3.25A3.33,3.33,0,0,1,76.28,489.33Zm5,0a1.51,1.51,0,1,0-1.51,1.55A1.48,1.48,0,0,0,81.32,489.33Z" transform="translate(-35.85 -35.22)"/>
    <path class="08150496-683e-48c4-802f-247b4090c4c4" d="M84.24,489.83v-3a0.58,0.58,0,0,1,.65-0.65h0.86a0.58,0.58,0,0,1,.65.65v2.79a1,1,0,0,0,.86,1.22,1.14,1.14,0,0,0,1-1.37v-2.65a0.58,0.58,0,0,1,.65-0.65h0.86a0.58,0.58,0,0,1,.65.65v4.94a0.58,0.58,0,0,1-.65.65H88.93a0.58,0.58,0,0,1-.65-0.65v-0.23a1.91,1.91,0,0,1-1.82,1C84.66,492.58,84.24,491.08,84.24,489.83Z" transform="translate(-35.85 -35.22)"/>
    <path class="08150496-683e-48c4-802f-247b4090c4c4" d="M91.52,491.3a0.54,0.54,0,0,1,.46-0.79l0.42-.1a0.79,0.79,0,0,1,.8.37,1.18,1.18,0,0,0,.83.29c0.42,0,.7-0.16.7-0.43s-0.12-.3-0.5-0.43l-0.73-.26c-0.49-.17-1.85-0.6-1.85-1.86a2.15,2.15,0,0,1,2.42-2,2.35,2.35,0,0,1,2,.91,0.52,0.52,0,0,1-.36.85l-0.38.11a0.76,0.76,0,0,1-.78-0.23,0.76,0.76,0,0,0-.52-0.18,0.45,0.45,0,0,0-.52.41,0.53,0.53,0,0,0,.49.42l0.74,0.29c1.31,0.46,1.85,1.13,1.86,1.94,0,1.34-1.21,2-2.6,2A2.56,2.56,0,0,1,91.52,491.3Z" transform="translate(-35.85 -35.22)"/>
    <path class="08150496-683e-48c4-802f-247b4090c4c4" d="M97.26,489.36a3.25,3.25,0,0,1,3.45-3.27,3.1,3.1,0,0,1,3.37,3.12,0.53,0.53,0,0,1-.66.53H99.29a1.55,1.55,0,0,0,1.77,1.2,2.58,2.58,0,0,0,1.24-.31,0.64,0.64,0,0,1,.9.16l0.17,0.22a0.59,0.59,0,0,1-.13.94,4.15,4.15,0,0,1-2.34.66C98.61,492.58,97.26,491.14,97.26,489.36Zm4.85-.71a1.26,1.26,0,0,0-1.38-1,1.31,1.31,0,0,0-1.4,1h2.78Z" transform="translate(-35.85 -35.22)"/>
    <path class="08150496-683e-48c4-802f-247b4090c4c4" d="M105,491.8v-7.38a0.58,0.58,0,0,1,.65-0.65h0.86a0.58,0.58,0,0,1,.65.65v2.67a1.88,1.88,0,0,1,1.81-1c1.8,0,2.22,1.5,2.22,2.75v3a0.58,0.58,0,0,1-.65.65h-0.86a0.58,0.58,0,0,1-.65-0.65V489a1,1,0,0,0-.85-1.21,1.13,1.13,0,0,0-1,1.35v2.65a0.58,0.58,0,0,1-.65.65h-0.86A0.58,0.58,0,0,1,105,491.8Z" transform="translate(-35.85 -35.22)"/>
    <path class="08150496-683e-48c4-802f-247b4090c4c4" d="M112.12,489.33a3.54,3.54,0,1,1,3.53,3.25A3.33,3.33,0,0,1,112.12,489.33Zm5,0a1.51,1.51,0,1,0-1.51,1.55A1.48,1.48,0,0,0,117.15,489.33Z" transform="translate(-35.85 -35.22)"/>
    <path class="08150496-683e-48c4-802f-247b4090c4c4" d="M120.16,491.8v-7.38a0.58,0.58,0,0,1,.65-0.65h0.86a0.58,0.58,0,0,1,.65.65v7.38a0.58,0.58,0,0,1-.65.65H120.8A0.58,0.58,0,0,1,120.16,491.8Z" transform="translate(-35.85 -35.22)"/>
    <path class="08150496-683e-48c4-802f-247b4090c4c4" d="M123.32,489.33a3,3,0,0,1,3-3.25,2.13,2.13,0,0,1,1.88,1v-2.63a0.58,0.58,0,0,1,.65-0.65h0.86a0.58,0.58,0,0,1,.65.65v7.38a0.58,0.58,0,0,1-.65.65h-0.86a0.58,0.58,0,0,1-.65-0.65v-0.18a2.15,2.15,0,0,1-1.88,1A3,3,0,0,1,123.32,489.33Zm4.89,0a1.43,1.43,0,0,0-1.38-1.57,1.59,1.59,0,0,0,0,3.14A1.43,1.43,0,0,0,128.22,489.33Z" transform="translate(-35.85 -35.22)"/>
    <path class="08150496-683e-48c4-802f-247b4090c4c4" d="M134.89,491.8v-4h-0.47a0.3,0.3,0,0,1-.34-0.34v-0.79a0.3,0.3,0,0,1,.34-0.34h0.47V486a2.17,2.17,0,0,1,2.42-2.33c1,0,2.16.43,2.16,1.69a0.89,0.89,0,0,1,0,.18,0.3,0.3,0,0,1-.32.29h-1a0.23,0.23,0,0,1-.25-0.23v-0.06a0.4,0.4,0,0,0-.44-0.35,0.46,0.46,0,0,0-.47.53v0.64h1a0.31,0.31,0,0,1,.34.34v0.79a0.31,0.31,0,0,1-.34.34H137v4a0.58,0.58,0,0,1-.65.65h-0.82A0.59,0.59,0,0,1,134.89,491.8Z" transform="translate(-35.85 -35.22)"/>
    <path class="08150496-683e-48c4-802f-247b4090c4c4" d="M138.75,489.33a3.54,3.54,0,1,1,3.53,3.25A3.33,3.33,0,0,1,138.75,489.33Zm5,0a1.51,1.51,0,1,0-1.51,1.55A1.48,1.48,0,0,0,143.79,489.33Z" transform="translate(-35.85 -35.22)"/>
    <path class="08150496-683e-48c4-802f-247b4090c4c4" d="M146.42,489.33a3.54,3.54,0,1,1,3.53,3.25A3.33,3.33,0,0,1,146.42,489.33Zm5,0a1.51,1.51,0,1,0-1.51,1.55A1.48,1.48,0,0,0,151.46,489.33Z" transform="translate(-35.85 -35.22)"/>
    <path class="08150496-683e-48c4-802f-247b4090c4c4" d="M154.11,489.33a3,3,0,0,1,3-3.25,2.13,2.13,0,0,1,1.88,1v-2.63a0.58,0.58,0,0,1,.65-0.65h0.86a0.58,0.58,0,0,1,.65.65v7.38a0.58,0.58,0,0,1-.65.65h-0.86a0.58,0.58,0,0,1-.65-0.65v-0.18a2.15,2.15,0,0,1-1.88,1A3,3,0,0,1,154.11,489.33Zm4.89,0a1.43,1.43,0,0,0-1.38-1.57,1.59,1.59,0,0,0,0,3.14A1.43,1.43,0,0,0,159,489.33Z" transform="translate(-35.85 -35.22)"/>
    <path class="08150496-683e-48c4-802f-247b4090c4c4" d="M80.17,505.7a0.54,0.54,0,0,1,.46-0.79l0.42-.1a0.79,0.79,0,0,1,.8.37,1.18,1.18,0,0,0,.83.29c0.42,0,.7-0.16.7-0.43s-0.12-.3-0.5-0.43l-0.73-.26c-0.49-.17-1.85-0.6-1.85-1.86a2.15,2.15,0,0,1,2.42-2,2.35,2.35,0,0,1,2,.91,0.52,0.52,0,0,1-.36.85l-0.38.11a0.76,0.76,0,0,1-.78-0.23,0.76,0.76,0,0,0-.52-0.18,0.45,0.45,0,0,0-.52.41,0.53,0.53,0,0,0,.49.42l0.74,0.29c1.31,0.46,1.85,1.13,1.86,1.94,0,1.34-1.21,2-2.6,2A2.56,2.56,0,0,1,80.17,505.7Z" transform="translate(-35.85 -35.22)"/>
    <path class="08150496-683e-48c4-802f-247b4090c4c4" d="M86.27,508.89v-7.63a0.58,0.58,0,0,1,.65-0.65h0.86a0.58,0.58,0,0,1,.65.65v0.18a2.12,2.12,0,0,1,1.88-1,3.26,3.26,0,0,1,0,6.5,2.12,2.12,0,0,1-1.88-1v2.87a0.58,0.58,0,0,1-.65.65H86.92A0.58,0.58,0,0,1,86.27,508.89Zm4.85-5.16a1.41,1.41,0,0,0-1.34-1.57,1.58,1.58,0,0,0,0,3.14A1.4,1.4,0,0,0,91.11,503.73Z" transform="translate(-35.85 -35.22)"/>
    <path class="08150496-683e-48c4-802f-247b4090c4c4" d="M93.91,503.76a3.25,3.25,0,0,1,3.45-3.27,3.1,3.1,0,0,1,3.37,3.12,0.53,0.53,0,0,1-.66.53H95.94a1.55,1.55,0,0,0,1.77,1.2,2.57,2.57,0,0,0,1.24-.31,0.64,0.64,0,0,1,.9.16l0.17,0.22a0.59,0.59,0,0,1-.13.94,4.15,4.15,0,0,1-2.34.66C95.27,507,93.91,505.54,93.91,503.76Zm4.85-.71a1.26,1.26,0,0,0-1.38-1,1.31,1.31,0,0,0-1.4,1h2.78Z" transform="translate(-35.85 -35.22)"/>
    <path class="08150496-683e-48c4-802f-247b4090c4c4" d="M101.69,506.2v-4.94a0.58,0.58,0,0,1,.65-0.65h0.86a0.58,0.58,0,0,1,.65.65v0.24a1.88,1.88,0,0,1,1.81-1c1.8,0,2.22,1.5,2.22,2.75v3a0.58,0.58,0,0,1-.65.65h-0.86a0.58,0.58,0,0,1-.65-0.65v-2.79a1,1,0,0,0-.85-1.21,1.13,1.13,0,0,0-1,1.36v2.65a0.58,0.58,0,0,1-.65.65h-0.86A0.58,0.58,0,0,1,101.69,506.2Z" transform="translate(-35.85 -35.22)"/>
    <path class="08150496-683e-48c4-802f-247b4090c4c4" d="M108.8,503.73a3,3,0,0,1,3-3.25,2.13,2.13,0,0,1,1.88,1v-2.63a0.58,0.58,0,0,1,.65-0.65h0.86a0.58,0.58,0,0,1,.65.65v7.38a0.58,0.58,0,0,1-.65.65h-0.86a0.58,0.58,0,0,1-.65-0.65V506a2.15,2.15,0,0,1-1.88,1A3,3,0,0,1,108.8,503.73Zm4.89,0a1.43,1.43,0,0,0-1.38-1.57,1.59,1.59,0,0,0,0,3.14A1.43,1.43,0,0,0,113.7,503.73Z" transform="translate(-35.85 -35.22)"/>
    <path class="08150496-683e-48c4-802f-247b4090c4c4" d="M117,499a1.26,1.26,0,0,1,2.48,0A1.26,1.26,0,0,1,117,499Zm0.16,7.18v-4.94a0.58,0.58,0,0,1,.65-0.65h0.86a0.58,0.58,0,0,1,.65.65v4.94a0.58,0.58,0,0,1-.65.65h-0.86A0.58,0.58,0,0,1,117.17,506.2Z" transform="translate(-35.85 -35.22)"/>
    <path class="08150496-683e-48c4-802f-247b4090c4c4" d="M120.68,506.2v-4.94a0.58,0.58,0,0,1,.65-0.65h0.86a0.58,0.58,0,0,1,.65.65v0.24a1.88,1.88,0,0,1,1.81-1c1.8,0,2.22,1.5,2.22,2.75v3a0.58,0.58,0,0,1-.65.65h-0.86a0.58,0.58,0,0,1-.65-0.65v-2.79a1,1,0,0,0-.85-1.21,1.13,1.13,0,0,0-1,1.36v2.65a0.58,0.58,0,0,1-.65.65h-0.86A0.58,0.58,0,0,1,120.68,506.2Z" transform="translate(-35.85 -35.22)"/>
    <path class="08150496-683e-48c4-802f-247b4090c4c4" d="M128.73,509.15a0.56,0.56,0,0,1-.25-0.87l0.18-.32a0.58,0.58,0,0,1,.86-0.25A3.26,3.26,0,0,0,131,508a1.55,1.55,0,0,0,1.7-1.71V506a2.18,2.18,0,0,1-1.92,1,3.27,3.27,0,0,1,0-6.5,2.1,2.1,0,0,1,1.88,1v-0.28a0.54,0.54,0,0,1,.65-0.56h0.82a0.58,0.58,0,0,1,.65.65v5c0,2.52-1.59,3.45-3.55,3.45A5.64,5.64,0,0,1,128.73,509.15Zm3.92-5.42a1.39,1.39,0,1,0-1.37,1.6A1.44,1.44,0,0,0,132.66,503.73Z" transform="translate(-35.85 -35.22)"/>
  </g>
  <g class="snap_subtext" style="visibility:hidden;">
    <path class="08150496-683e-48c4-802f-247b4090c4c4" d="M233.15,489.33a3.54,3.54,0,1,1,3.53,3.25A3.33,3.33,0,0,1,233.15,489.33Zm5,0a1.51,1.51,0,1,0-1.51,1.55A1.48,1.48,0,0,0,238.19,489.33Z" transform="translate(-35.85 -35.22)"/>
    <path class="08150496-683e-48c4-802f-247b4090c4c4" d="M241.51,491.8v-4H241a0.3,0.3,0,0,1-.34-0.34v-0.79a0.3,0.3,0,0,1,.34-0.34h0.47V486a2.17,2.17,0,0,1,2.42-2.33c1,0,2.16.43,2.16,1.69a0.93,0.93,0,0,1,0,.18,0.3,0.3,0,0,1-.32.29h-1a0.23,0.23,0,0,1-.25-0.23v-0.06a0.4,0.4,0,0,0-.44-0.35,0.46,0.46,0,0,0-.47.53v0.64h1a0.31,0.31,0,0,1,.33.34v0.79a0.31,0.31,0,0,1-.33.34h-0.94v4a0.58,0.58,0,0,1-.65.65h-0.82A0.59,0.59,0,0,1,241.51,491.8Z" transform="translate(-35.85 -35.22)"/>
    <path class="08150496-683e-48c4-802f-247b4090c4c4" d="M248.71,491.8v-7.38a0.58,0.58,0,0,1,.65-0.65h0.86a0.58,0.58,0,0,1,.65.65v2.67a1.88,1.88,0,0,1,1.81-1c1.8,0,2.22,1.5,2.22,2.75v3a0.58,0.58,0,0,1-.65.65h-0.86a0.58,0.58,0,0,1-.65-0.65V489a1,1,0,0,0-.85-1.21,1.13,1.13,0,0,0-1,1.35v2.65a0.58,0.58,0,0,1-.65.65h-0.86A0.58,0.58,0,0,1,248.71,491.8Z" transform="translate(-35.85 -35.22)"/>
    <path class="08150496-683e-48c4-802f-247b4090c4c4" d="M255.79,489.33a3.54,3.54,0,1,1,3.53,3.25A3.33,3.33,0,0,1,255.79,489.33Zm5,0a1.51,1.51,0,1,0-1.51,1.55A1.48,1.48,0,0,0,260.83,489.33Z" transform="translate(-35.85 -35.22)"/>
    <path class="08150496-683e-48c4-802f-247b4090c4c4" d="M263.75,489.83v-3a0.58,0.58,0,0,1,.65-0.65h0.86a0.58,0.58,0,0,1,.65.65v2.79a1,1,0,0,0,.86,1.22,1.14,1.14,0,0,0,1-1.37v-2.65a0.58,0.58,0,0,1,.65-0.65h0.86a0.58,0.58,0,0,1,.65.65v4.94a0.58,0.58,0,0,1-.65.65h-0.86a0.58,0.58,0,0,1-.65-0.65v-0.23a1.91,1.91,0,0,1-1.82,1C264.17,492.58,263.75,491.08,263.75,489.83Z" transform="translate(-35.85 -35.22)"/>
    <path class="08150496-683e-48c4-802f-247b4090c4c4" d="M271,491.3a0.54,0.54,0,0,1,.46-0.79l0.42-.1a0.79,0.79,0,0,1,.8.37,1.18,1.18,0,0,0,.83.29c0.42,0,.7-0.16.7-0.43s-0.12-.3-0.5-0.43l-0.73-.26c-0.49-.17-1.85-0.6-1.85-1.86a2.15,2.15,0,0,1,2.42-2,2.35,2.35,0,0,1,2,.91,0.52,0.52,0,0,1-.36.85l-0.38.11a0.76,0.76,0,0,1-.78-0.23,0.75,0.75,0,0,0-.52-0.18,0.45,0.45,0,0,0-.52.41,0.53,0.53,0,0,0,.49.42l0.74,0.29c1.31,0.46,1.85,1.13,1.86,1.94,0,1.34-1.21,2-2.6,2A2.56,2.56,0,0,1,271,491.3Z" transform="translate(-35.85 -35.22)"/>
    <path class="08150496-683e-48c4-802f-247b4090c4c4" d="M276.77,489.36a3.25,3.25,0,0,1,3.45-3.27,3.1,3.1,0,0,1,3.37,3.12,0.53,0.53,0,0,1-.66.53h-4.14a1.55,1.55,0,0,0,1.77,1.2,2.58,2.58,0,0,0,1.24-.31,0.64,0.64,0,0,1,.9.16l0.17,0.22a0.59,0.59,0,0,1-.13.94,4.15,4.15,0,0,1-2.34.66C278.12,492.58,276.77,491.14,276.77,489.36Zm4.85-.71a1.26,1.26,0,0,0-1.38-1,1.31,1.31,0,0,0-1.4,1h2.78Z" transform="translate(-35.85 -35.22)"/>
    <path class="08150496-683e-48c4-802f-247b4090c4c4" d="M284.54,491.8v-7.38a0.58,0.58,0,0,1,.65-0.65h0.86a0.58,0.58,0,0,1,.65.65v2.67a1.88,1.88,0,0,1,1.81-1c1.8,0,2.22,1.5,2.22,2.75v3a0.58,0.58,0,0,1-.65.65h-0.86a0.58,0.58,0,0,1-.65-0.65V489a1,1,0,0,0-.85-1.21,1.13,1.13,0,0,0-1,1.35v2.65a0.58,0.58,0,0,1-.65.65h-0.86A0.58,0.58,0,0,1,284.54,491.8Z" transform="translate(-35.85 -35.22)"/>
    <path class="08150496-683e-48c4-802f-247b4090c4c4" d="M291.62,489.33a3.54,3.54,0,1,1,3.53,3.25A3.33,3.33,0,0,1,291.62,489.33Zm5,0a1.51,1.51,0,1,0-1.51,1.55A1.48,1.48,0,0,0,296.66,489.33Z" transform="translate(-35.85 -35.22)"/>
    <path class="08150496-683e-48c4-802f-247b4090c4c4" d="M299.66,491.8v-7.38a0.58,0.58,0,0,1,.65-0.65h0.86a0.58,0.58,0,0,1,.65.65v7.38a0.58,0.58,0,0,1-.65.65h-0.86A0.58,0.58,0,0,1,299.66,491.8Z" transform="translate(-35.85 -35.22)"/>
    <path class="08150496-683e-48c4-802f-247b4090c4c4" d="M302.83,489.33a3,3,0,0,1,3-3.25,2.13,2.13,0,0,1,1.88,1v-2.63a0.58,0.58,0,0,1,.65-0.65h0.86a0.58,0.58,0,0,1,.65.65v7.38a0.58,0.58,0,0,1-.65.65h-0.86a0.58,0.58,0,0,1-.65-0.65v-0.18a2.15,2.15,0,0,1-1.88,1A3,3,0,0,1,302.83,489.33Zm4.89,0a1.43,1.43,0,0,0-1.38-1.57,1.59,1.59,0,0,0,0,3.14A1.43,1.43,0,0,0,307.72,489.33Z" transform="translate(-35.85 -35.22)"/>
    <path class="08150496-683e-48c4-802f-247b4090c4c4" d="M314.4,491.8v-4h-0.47a0.3,0.3,0,0,1-.34-0.34v-0.79a0.3,0.3,0,0,1,.34-0.34h0.47V486a2.17,2.17,0,0,1,2.42-2.33c1,0,2.16.43,2.16,1.69a0.86,0.86,0,0,1,0,.18,0.3,0.3,0,0,1-.32.29h-1a0.23,0.23,0,0,1-.25-0.23v-0.06a0.4,0.4,0,0,0-.44-0.35,0.46,0.46,0,0,0-.47.53v0.64h1a0.31,0.31,0,0,1,.34.34v0.79a0.31,0.31,0,0,1-.34.34h-0.94v4a0.58,0.58,0,0,1-.65.65h-0.82A0.59,0.59,0,0,1,314.4,491.8Z" transform="translate(-35.85 -35.22)"/>
    <path class="08150496-683e-48c4-802f-247b4090c4c4" d="M318.26,489.33a3.54,3.54,0,1,1,3.53,3.25A3.33,3.33,0,0,1,318.26,489.33Zm5,0a1.51,1.51,0,1,0-1.51,1.55A1.48,1.48,0,0,0,323.3,489.33Z" transform="translate(-35.85 -35.22)"/>
    <path class="08150496-683e-48c4-802f-247b4090c4c4" d="M325.93,489.33a3.54,3.54,0,1,1,3.53,3.25A3.33,3.33,0,0,1,325.93,489.33Zm5,0a1.51,1.51,0,1,0-1.51,1.55A1.48,1.48,0,0,0,331,489.33Z" transform="translate(-35.85 -35.22)"/>
    <path class="08150496-683e-48c4-802f-247b4090c4c4" d="M333.62,489.33a3,3,0,0,1,3-3.25,2.13,2.13,0,0,1,1.88,1v-2.63a0.58,0.58,0,0,1,.65-0.65H340a0.58,0.58,0,0,1,.65.65v7.38a0.58,0.58,0,0,1-.65.65h-0.86a0.58,0.58,0,0,1-.65-0.65v-0.18a2.15,2.15,0,0,1-1.88,1A3,3,0,0,1,333.62,489.33Zm4.89,0a1.43,1.43,0,0,0-1.38-1.57,1.59,1.59,0,0,0,0,3.14A1.43,1.43,0,0,0,338.52,489.33Z" transform="translate(-35.85 -35.22)"/>
    <path class="08150496-683e-48c4-802f-247b4090c4c4" d="M259.68,505.7a0.54,0.54,0,0,1,.46-0.79l0.42-.1a0.79,0.79,0,0,1,.8.37,1.18,1.18,0,0,0,.83.29c0.42,0,.7-0.16.7-0.43s-0.12-.3-0.5-0.43l-0.73-.26c-0.49-.17-1.85-0.6-1.85-1.86a2.15,2.15,0,0,1,2.42-2,2.35,2.35,0,0,1,2,.91,0.52,0.52,0,0,1-.36.85l-0.38.11a0.76,0.76,0,0,1-.78-0.23,0.76,0.76,0,0,0-.52-0.18,0.45,0.45,0,0,0-.52.41,0.53,0.53,0,0,0,.49.42l0.74,0.29c1.31,0.46,1.85,1.13,1.86,1.94,0,1.34-1.21,2-2.6,2A2.56,2.56,0,0,1,259.68,505.7Z" transform="translate(-35.85 -35.22)"/>
    <path class="08150496-683e-48c4-802f-247b4090c4c4" d="M265.78,508.89v-7.63a0.58,0.58,0,0,1,.65-0.65h0.86a0.58,0.58,0,0,1,.65.65v0.18a2.12,2.12,0,0,1,1.88-1,3.26,3.26,0,0,1,0,6.5,2.12,2.12,0,0,1-1.88-1v2.87a0.58,0.58,0,0,1-.65.65h-0.86A0.58,0.58,0,0,1,265.78,508.89Zm4.85-5.16a1.41,1.41,0,0,0-1.34-1.57,1.58,1.58,0,0,0,0,3.14A1.4,1.4,0,0,0,270.62,503.73Z" transform="translate(-35.85 -35.22)"/>
    <path class="08150496-683e-48c4-802f-247b4090c4c4" d="M273.42,503.76a3.25,3.25,0,0,1,3.45-3.27,3.1,3.1,0,0,1,3.37,3.12,0.53,0.53,0,0,1-.66.53h-4.14a1.55,1.55,0,0,0,1.78,1.2,2.57,2.57,0,0,0,1.24-.31,0.65,0.65,0,0,1,.9.16l0.17,0.22a0.59,0.59,0,0,1-.13.94,4.16,4.16,0,0,1-2.34.66C274.77,507,273.42,505.54,273.42,503.76Zm4.84-.71a1.26,1.26,0,0,0-1.38-1,1.31,1.31,0,0,0-1.4,1h2.78Z" transform="translate(-35.85 -35.22)"/>
    <path class="08150496-683e-48c4-802f-247b4090c4c4" d="M281.2,506.2v-4.94a0.58,0.58,0,0,1,.65-0.65h0.86a0.58,0.58,0,0,1,.65.65v0.24a1.88,1.88,0,0,1,1.81-1c1.8,0,2.22,1.5,2.22,2.75v3a0.58,0.58,0,0,1-.65.65h-0.86a0.58,0.58,0,0,1-.65-0.65v-2.79a1,1,0,0,0-.85-1.21,1.13,1.13,0,0,0-1,1.36v2.65a0.58,0.58,0,0,1-.65.65h-0.86A0.58,0.58,0,0,1,281.2,506.2Z" transform="translate(-35.85 -35.22)"/>
    <path class="08150496-683e-48c4-802f-247b4090c4c4" d="M288.31,503.73a3,3,0,0,1,3-3.25,2.13,2.13,0,0,1,1.88,1v-2.63a0.58,0.58,0,0,1,.65-0.65h0.86a0.58,0.58,0,0,1,.65.65v7.38a0.58,0.58,0,0,1-.65.65h-0.86a0.58,0.58,0,0,1-.65-0.65V506a2.15,2.15,0,0,1-1.88,1A3,3,0,0,1,288.31,503.73Zm4.89,0a1.43,1.43,0,0,0-1.38-1.57,1.59,1.59,0,0,0,0,3.14A1.43,1.43,0,0,0,293.21,503.73Z" transform="translate(-35.85 -35.22)"/>
    <path class="08150496-683e-48c4-802f-247b4090c4c4" d="M296.52,499a1.26,1.26,0,0,1,2.48,0A1.26,1.26,0,0,1,296.52,499Zm0.16,7.18v-4.94a0.58,0.58,0,0,1,.65-0.65h0.86a0.58,0.58,0,0,1,.65.65v4.94a0.58,0.58,0,0,1-.65.65h-0.86A0.58,0.58,0,0,1,296.67,506.2Z" transform="translate(-35.85 -35.22)"/>
    <path class="08150496-683e-48c4-802f-247b4090c4c4" d="M300.19,506.2v-4.94a0.58,0.58,0,0,1,.65-0.65h0.86a0.58,0.58,0,0,1,.65.65v0.24a1.88,1.88,0,0,1,1.81-1c1.8,0,2.22,1.5,2.22,2.75v3a0.58,0.58,0,0,1-.65.65h-0.86a0.58,0.58,0,0,1-.65-0.65v-2.79a1,1,0,0,0-.85-1.21,1.13,1.13,0,0,0-1,1.36v2.65a0.58,0.58,0,0,1-.65.65h-0.86A0.58,0.58,0,0,1,300.19,506.2Z" transform="translate(-35.85 -35.22)"/>
    <path class="08150496-683e-48c4-802f-247b4090c4c4" d="M308.24,509.15a0.56,0.56,0,0,1-.25-0.87l0.18-.32a0.58,0.58,0,0,1,.86-0.25,3.26,3.26,0,0,0,1.43.35,1.55,1.55,0,0,0,1.7-1.71V506a2.18,2.18,0,0,1-1.92,1,3.27,3.27,0,0,1,0-6.5,2.1,2.1,0,0,1,1.88,1v-0.28a0.54,0.54,0,0,1,.65-0.56h0.82a0.58,0.58,0,0,1,.65.65v5c0,2.52-1.59,3.45-3.55,3.45A5.64,5.64,0,0,1,308.24,509.15Zm3.92-5.42a1.39,1.39,0,1,0-1.37,1.6A1.44,1.44,0,0,0,312.17,503.73Z" transform="translate(-35.85 -35.22)"/>
  </g>
  <g class="snap_subtext" style="visibility:hidden;">
    <path class="08150496-683e-48c4-802f-247b4090c4c4" d="M78.84,241.8a1.26,1.26,0,0,1,2.48,0A1.26,1.26,0,0,1,78.84,241.8ZM79,249V244a0.58,0.58,0,0,1,.65-0.65h0.86a0.58,0.58,0,0,1,.65.65V249a0.58,0.58,0,0,1-.65.65H79.64A0.58,0.58,0,0,1,79,249Z" transform="translate(-35.85 -35.22)"/>
    <path class="08150496-683e-48c4-802f-247b4090c4c4" d="M82.51,249V244a0.58,0.58,0,0,1,.65-0.65H84a0.58,0.58,0,0,1,.65.65v0.24a1.88,1.88,0,0,1,1.81-1c1.8,0,2.22,1.5,2.22,2.75v3a0.58,0.58,0,0,1-.65.65H87.19a0.58,0.58,0,0,1-.65-0.65v-2.79a1,1,0,0,0-.85-1.21,1.13,1.13,0,0,0-1,1.35V249a0.58,0.58,0,0,1-.65.65H83.16A0.58,0.58,0,0,1,82.51,249Z" transform="translate(-35.85 -35.22)"/>
    <path class="08150496-683e-48c4-802f-247b4090c4c4" d="M104.5,247.47c0,2.78-1.56,4.37-3.94,4.37-1.49,0-3-.53-4.63-3.1a5.43,5.43,0,0,1-.65-2.9,20.24,20.24,0,0,1,.22-2.74l2.69,0.29,1.15,1.1a8,8,0,0,0-1.9-3.43,8,8,0,0,1-2.21-5.57V235.2c0-2.45,1-4.37,3.82-4.37a3.62,3.62,0,0,1,2,.48c2.3,1.54,3.19,2.88,3.19,5.4a18.36,18.36,0,0,1-.17,2.52l-2.42-.22s0.67,1.1,1.1,1.87a12.78,12.78,0,0,1,1.7,6.22v0.36Zm-1.9-2a10.67,10.67,0,0,0-2.62-6.5,5.83,5.83,0,0,1-1.56-3.67v-0.38c0-1.06.17-1.58,0.84-1.58s0.89,0.58.89,2.14a10.8,10.8,0,0,1-.1,1.61l2.14,0.24a15.62,15.62,0,0,0,.14-2.11c0-2.5-.79-4-3.29-4s-3.53,1.73-3.53,4.08v0.29a7.75,7.75,0,0,0,2.16,5.4c1.58,1.92,2,3.19,2,4.61V246c0,1.13-.29,1.68-1,1.68s-1-.58-1-2.11a16.07,16.07,0,0,1,.14-1.92l-2.11-.24a18.31,18.31,0,0,0-.17,2.42c0,2.62,1,4,3.31,4s3.72-1.2,3.72-4.08v-0.36Z" transform="translate(-35.85 -35.22)"/>
    <path class="08150496-683e-48c4-802f-247b4090c4c4" d="M114.86,251.55h-2.59l-1.7-1.68-0.43-1.8v3.48h-2.9l-1.7-1.68V231.15h3l1.46,1.7,0.31,0.74v-2.45h2.93l1.68,1.73v18.67Zm-2-1.92V231.43h-2.35v9.22l-2.3-9.22h-2.42v18.19h2.35V239.11l2.64,10.51h2.09Z" transform="translate(-35.85 -35.22)"/>
    <path class="08150496-683e-48c4-802f-247b4090c4c4" d="M126,251.57H122.4l-1.68-1.7-0.07-.86H120.5l-0.19,2.57h-3l-1.66-1.7,2.42-18.72h3.67l1.68,1.7Zm-2-2-2.4-18.15h-3.19L116,249.58h2.38l0.24-2.57h2.14l0.24,2.57h2.93Zm-3.46-4.85h-1.63l0.94-9.1Z" transform="translate(-35.85 -35.22)"/>
    <path class="08150496-683e-48c4-802f-247b4090c4c4" d="M132,244.88H131.9v6.67h-3.46l-1.7-1.68V231.15h3.94a4.55,4.55,0,0,1,2.3.53c1.85,1.08,3.6,2.5,3.6,7.13S134.42,244.88,132,244.88Zm-1.37-13.44H127v18.15h2.9V243h0.86c2.14,0,3.82-1.3,3.82-5.86C134.62,232.8,133.3,231.43,130.68,231.43Zm-0.24,9.29h-0.5v-7h0.48c1,0,1.37.89,1.37,3.41C131.78,239.81,131.33,240.72,130.44,240.72Z" transform="translate(-35.85 -35.22)"/>
    <path class="08150496-683e-48c4-802f-247b4090c4c4" d="M68.92,263.38V256a0.58,0.58,0,0,1,.65-0.65h0.86a0.58,0.58,0,0,1,.65.65v2.67a1.88,1.88,0,0,1,1.81-1c1.8,0,2.22,1.5,2.22,2.75v3a0.58,0.58,0,0,1-.65.65H73.59a0.58,0.58,0,0,1-.65-0.65v-2.79a1,1,0,0,0-.85-1.21,1.13,1.13,0,0,0-1,1.35v2.65a0.58,0.58,0,0,1-.65.65H69.56A0.58,0.58,0,0,1,68.92,263.38Z" transform="translate(-35.85 -35.22)"/>
    <path class="08150496-683e-48c4-802f-247b4090c4c4" d="M76,260.91a3.54,3.54,0,1,1,3.53,3.25A3.33,3.33,0,0,1,76,260.91Zm5,0a1.51,1.51,0,1,0-1.51,1.55A1.48,1.48,0,0,0,81,260.91Z" transform="translate(-35.85 -35.22)"/>
    <path class="08150496-683e-48c4-802f-247b4090c4c4" d="M84,261.41v-3a0.58,0.58,0,0,1,.65-0.65h0.86a0.58,0.58,0,0,1,.65.65v2.79a1,1,0,0,0,.86,1.22,1.14,1.14,0,0,0,1-1.37v-2.65a0.58,0.58,0,0,1,.65-0.65H89.5a0.58,0.58,0,0,1,.65.65v4.94a0.58,0.58,0,0,1-.65.65H88.64a0.58,0.58,0,0,1-.65-0.65v-0.23a1.91,1.91,0,0,1-1.82,1C84.37,264.16,84,262.66,84,261.41Z" transform="translate(-35.85 -35.22)"/>
    <path class="08150496-683e-48c4-802f-247b4090c4c4" d="M91.24,262.88a0.54,0.54,0,0,1,.46-0.79l0.42-.1a0.79,0.79,0,0,1,.8.37,1.18,1.18,0,0,0,.83.29c0.42,0,.7-0.16.7-0.43s-0.12-.3-0.5-0.43l-0.73-.26c-0.49-.17-1.85-0.6-1.85-1.86a2.15,2.15,0,0,1,2.42-2,2.35,2.35,0,0,1,2,.91,0.52,0.52,0,0,1-.36.85l-0.38.11a0.76,0.76,0,0,1-.78-0.23,0.76,0.76,0,0,0-.52-0.18,0.45,0.45,0,0,0-.52.41,0.53,0.53,0,0,0,.49.42l0.74,0.29c1.31,0.46,1.85,1.13,1.86,1.94,0,1.34-1.21,2-2.6,2A2.56,2.56,0,0,1,91.24,262.88Z" transform="translate(-35.85 -35.22)"/>
    <path class="08150496-683e-48c4-802f-247b4090c4c4" d="M97,260.93a3.25,3.25,0,0,1,3.45-3.27,3.1,3.1,0,0,1,3.37,3.12,0.53,0.53,0,0,1-.66.53H99a1.55,1.55,0,0,0,1.77,1.2,2.58,2.58,0,0,0,1.24-.31,0.64,0.64,0,0,1,.9.16l0.17,0.22a0.59,0.59,0,0,1-.13.94,4.15,4.15,0,0,1-2.34.66C98.33,264.16,97,262.72,97,260.93Zm4.85-.71a1.26,1.26,0,0,0-1.38-1,1.31,1.31,0,0,0-1.4,1h2.78Z" transform="translate(-35.85 -35.22)"/>
    <path class="08150496-683e-48c4-802f-247b4090c4c4" d="M104.75,263.38V256a0.58,0.58,0,0,1,.65-0.65h0.86a0.58,0.58,0,0,1,.65.65v2.67a1.88,1.88,0,0,1,1.81-1c1.8,0,2.22,1.5,2.22,2.75v3a0.58,0.58,0,0,1-.65.65h-0.86a0.58,0.58,0,0,1-.65-0.65v-2.79a1,1,0,0,0-.85-1.21,1.13,1.13,0,0,0-1,1.35v2.65a0.58,0.58,0,0,1-.65.65h-0.86A0.58,0.58,0,0,1,104.75,263.38Z" transform="translate(-35.85 -35.22)"/>
    <path class="08150496-683e-48c4-802f-247b4090c4c4" d="M111.83,260.91a3.54,3.54,0,1,1,3.53,3.25A3.33,3.33,0,0,1,111.83,260.91Zm5,0a1.51,1.51,0,1,0-1.51,1.55A1.48,1.48,0,0,0,116.86,260.91Z" transform="translate(-35.85 -35.22)"/>
    <path class="08150496-683e-48c4-802f-247b4090c4c4" d="M119.87,263.38V256a0.58,0.58,0,0,1,.65-0.65h0.86a0.58,0.58,0,0,1,.65.65v7.38a0.58,0.58,0,0,1-.65.65h-0.86A0.58,0.58,0,0,1,119.87,263.38Z" transform="translate(-35.85 -35.22)"/>
    <path class="08150496-683e-48c4-802f-247b4090c4c4" d="M123,260.91a3,3,0,0,1,3-3.25,2.13,2.13,0,0,1,1.88,1V256a0.58,0.58,0,0,1,.65-0.65h0.86a0.58,0.58,0,0,1,.65.65v7.38a0.58,0.58,0,0,1-.65.65h-0.86a0.58,0.58,0,0,1-.65-0.65V263.2a2.15,2.15,0,0,1-1.88,1A3,3,0,0,1,123,260.91Zm4.89,0a1.43,1.43,0,0,0-1.38-1.57,1.59,1.59,0,0,0,0,3.14A1.43,1.43,0,0,0,127.93,260.91Z" transform="translate(-35.85 -35.22)"/>
    <path class="08150496-683e-48c4-802f-247b4090c4c4" d="M131.15,262.88a0.54,0.54,0,0,1,.46-0.79L132,262a0.79,0.79,0,0,1,.8.37,1.18,1.18,0,0,0,.83.29c0.42,0,.7-0.16.7-0.43s-0.12-.3-0.5-0.43l-0.73-.26c-0.49-.17-1.85-0.6-1.85-1.86a2.15,2.15,0,0,1,2.42-2,2.35,2.35,0,0,1,2,.91,0.52,0.52,0,0,1-.36.85l-0.38.11a0.76,0.76,0,0,1-.78-0.23,0.76,0.76,0,0,0-.52-0.18,0.45,0.45,0,0,0-.52.41,0.53,0.53,0,0,0,.49.42l0.74,0.29c1.31,0.46,1.85,1.13,1.86,1.94,0,1.34-1.21,2-2.6,2A2.56,2.56,0,0,1,131.15,262.88Z" transform="translate(-35.85 -35.22)"/>
    <path class="08150496-683e-48c4-802f-247b4090c4c4" d="M137,263a1.28,1.28,0,1,1,1.26,1.12A1.17,1.17,0,0,1,137,263Z" transform="translate(-35.85 -35.22)"/>
    <path class="08150496-683e-48c4-802f-247b4090c4c4" d="M140.47,263a1.28,1.28,0,1,1,1.26,1.12A1.17,1.17,0,0,1,140.47,263Z" transform="translate(-35.85 -35.22)"/>
    <path class="08150496-683e-48c4-802f-247b4090c4c4" d="M143.91,263a1.28,1.28,0,1,1,1.26,1.12A1.17,1.17,0,0,1,143.91,263Z" transform="translate(-35.85 -35.22)"/>
  </g>
  <g class="snap_subtext" style="visibility:hidden;">
    <path class="08150496-683e-48c4-802f-247b4090c4c4" d="M237.6,241.8a1.26,1.26,0,0,1,2.48,0A1.26,1.26,0,0,1,237.6,241.8Zm0.16,7.18V244a0.58,0.58,0,0,1,.65-0.65h0.86a0.58,0.58,0,0,1,.65.65V249a0.58,0.58,0,0,1-.65.65H238.4A0.58,0.58,0,0,1,237.76,249Z" transform="translate(-35.85 -35.22)"/>
    <path class="08150496-683e-48c4-802f-247b4090c4c4" d="M241.27,249V244a0.58,0.58,0,0,1,.65-0.65h0.86a0.58,0.58,0,0,1,.65.65v0.24a1.88,1.88,0,0,1,1.81-1c1.8,0,2.22,1.5,2.22,2.75v3a0.58,0.58,0,0,1-.65.65H246a0.58,0.58,0,0,1-.65-0.65v-2.79a1,1,0,0,0-.85-1.21,1.13,1.13,0,0,0-1,1.35V249a0.58,0.58,0,0,1-.65.65h-0.86A0.58,0.58,0,0,1,241.27,249Z" transform="translate(-35.85 -35.22)"/>
    <path class="08150496-683e-48c4-802f-247b4090c4c4" d="M263.64,251.55H261l-1.7-1.68-0.43-1.8v3.48H256l-1.7-1.68V231.15h3l1.46,1.7,0.31,0.74v-2.45H262l1.68,1.73v18.67Zm-2-1.92V231.43h-2.35v9.22l-2.3-9.22h-2.42v18.19h2.35V239.11l2.64,10.51h2.09Z" transform="translate(-35.85 -35.22)"/>
    <path class="08150496-683e-48c4-802f-247b4090c4c4" d="M274.75,247.4c0,3.12-1.9,4.44-4.1,4.44-1.7,0-2.54-.34-4.87-2.9a4.24,4.24,0,0,1-1-3V235.06c0-3.1,1.94-4.22,4.18-4.22a4.53,4.53,0,0,1,2.45.62c2.45,1.54,3.34,3.26,3.34,5.28V247.4Zm-2-12.34c0-2.93-1.68-3.94-3.79-3.94s-3.89,1-3.89,3.94v10.87c0,2.86,1.75,3.94,3.89,3.94s3.79-1,3.79-3.94V235.06Zm-2.88,11.5a0.93,0.93,0,0,1-.91,1.13,1,1,0,0,1-1-1.15v-12.1a1,1,0,0,1,1-1.15,1,1,0,0,1,.94,1.15v12.12Z" transform="translate(-35.85 -35.22)"/>
    <path class="08150496-683e-48c4-802f-247b4090c4c4" d="M285.24,251.55h-2.59l-1.7-1.68-0.43-1.8v3.48h-2.9l-1.7-1.68V231.15h3l1.46,1.7,0.31,0.74v-2.45h2.93l1.68,1.73v18.67Zm-2-1.92V231.43h-2.35v9.22l-2.3-9.22h-2.42v18.19h2.35V239.11l2.64,10.51h2.09Z" transform="translate(-35.85 -35.22)"/>
    <path class="08150496-683e-48c4-802f-247b4090c4c4" d="M294.17,243.36h-5.59l-1.7-1.68V239h5.62l1.68,1.68v2.66Zm-2-2v-2.09h-5v2.09h5Z" transform="translate(-35.85 -35.22)"/>
    <path class="08150496-683e-48c4-802f-247b4090c4c4" d="M304.75,247.47c0,2.78-1.56,4.37-3.94,4.37-1.49,0-3-.53-4.63-3.1a5.43,5.43,0,0,1-.65-2.9,20.33,20.33,0,0,1,.22-2.74l2.69,0.29,1.15,1.1a8,8,0,0,0-1.9-3.43,8,8,0,0,1-2.21-5.57V235.2c0-2.45,1-4.37,3.82-4.37a3.62,3.62,0,0,1,2,.48c2.3,1.54,3.19,2.88,3.19,5.4a18.44,18.44,0,0,1-.17,2.52l-2.42-.22s0.67,1.1,1.1,1.87a12.78,12.78,0,0,1,1.7,6.22v0.36Zm-1.9-2a10.67,10.67,0,0,0-2.62-6.5,5.83,5.83,0,0,1-1.56-3.67v-0.38c0-1.06.17-1.58,0.84-1.58s0.89,0.58.89,2.14a10.8,10.8,0,0,1-.1,1.61l2.14,0.24a15.71,15.71,0,0,0,.14-2.11c0-2.5-.79-4-3.29-4s-3.53,1.73-3.53,4.08v0.29a7.75,7.75,0,0,0,2.16,5.4c1.58,1.92,2,3.19,2,4.61V246c0,1.13-.29,1.68-1,1.68s-1-.58-1-2.11a16,16,0,0,1,.14-1.92l-2.11-.24a18.31,18.31,0,0,0-.17,2.42c0,2.62,1,4,3.31,4s3.72-1.2,3.72-4.08v-0.36Z" transform="translate(-35.85 -35.22)"/>
    <path class="08150496-683e-48c4-802f-247b4090c4c4" d="M315.12,251.55h-2.59l-1.7-1.68-0.43-1.8v3.48h-2.9l-1.7-1.68V231.15h3l1.46,1.7,0.31,0.74v-2.45h2.93l1.68,1.73v18.67Zm-2-1.92V231.43H310.8v9.22l-2.3-9.22h-2.42v18.19h2.35V239.11l2.64,10.51h2.09Z" transform="translate(-35.85 -35.22)"/>
    <path class="08150496-683e-48c4-802f-247b4090c4c4" d="M326.21,251.57h-3.55l-1.68-1.7L320.9,249h-0.14l-0.19,2.57h-3l-1.66-1.7,2.42-18.72H322l1.68,1.7Zm-2-2-2.4-18.15h-3.19l-2.33,18.15h2.38l0.24-2.57H321l0.24,2.57h2.93Zm-3.46-4.85h-1.63l0.94-9.1Z" transform="translate(-35.85 -35.22)"/>
    <path class="08150496-683e-48c4-802f-247b4090c4c4" d="M332.3,244.88h-0.14v6.67H328.7l-1.7-1.68V231.15h3.94a4.55,4.55,0,0,1,2.3.53c1.85,1.08,3.6,2.5,3.6,7.13S334.68,244.88,332.3,244.88Zm-1.37-13.44h-3.65v18.15h2.9V243h0.86c2.14,0,3.82-1.3,3.82-5.86C334.87,232.8,333.55,231.43,330.94,231.43Zm-0.24,9.29h-0.5v-7h0.48c1,0,1.37.89,1.37,3.41C332,239.81,331.58,240.72,330.7,240.72Z" transform="translate(-35.85 -35.22)"/>
    <path class="08150496-683e-48c4-802f-247b4090c4c4" d="M248.42,263.38V256a0.58,0.58,0,0,1,.65-0.65h0.86a0.58,0.58,0,0,1,.65.65v2.67a1.88,1.88,0,0,1,1.81-1c1.8,0,2.22,1.5,2.22,2.75v3a0.58,0.58,0,0,1-.65.65H253.1a0.58,0.58,0,0,1-.65-0.65v-2.79a1,1,0,0,0-.85-1.21,1.13,1.13,0,0,0-1,1.35v2.65a0.58,0.58,0,0,1-.65.65h-0.86A0.58,0.58,0,0,1,248.42,263.38Z" transform="translate(-35.85 -35.22)"/>
    <path class="08150496-683e-48c4-802f-247b4090c4c4" d="M255.5,260.91a3.54,3.54,0,1,1,3.53,3.25A3.33,3.33,0,0,1,255.5,260.91Zm5,0a1.51,1.51,0,1,0-1.51,1.55A1.48,1.48,0,0,0,260.54,260.91Z" transform="translate(-35.85 -35.22)"/>
    <path class="08150496-683e-48c4-802f-247b4090c4c4" d="M263.46,261.41v-3a0.58,0.58,0,0,1,.65-0.65H265a0.58,0.58,0,0,1,.65.65v2.79a1,1,0,0,0,.86,1.22,1.14,1.14,0,0,0,1-1.37v-2.65a0.58,0.58,0,0,1,.65-0.65H269a0.58,0.58,0,0,1,.65.65v4.94a0.58,0.58,0,0,1-.65.65h-0.86a0.58,0.58,0,0,1-.65-0.65v-0.23a1.91,1.91,0,0,1-1.82,1C263.88,264.16,263.46,262.66,263.46,261.41Z" transform="translate(-35.85 -35.22)"/>
    <path class="08150496-683e-48c4-802f-247b4090c4c4" d="M270.74,262.88a0.54,0.54,0,0,1,.46-0.79l0.42-.1a0.79,0.79,0,0,1,.8.37,1.18,1.18,0,0,0,.83.29c0.42,0,.7-0.16.7-0.43s-0.12-.3-0.5-0.43l-0.73-.26c-0.49-.17-1.85-0.6-1.85-1.86a2.15,2.15,0,0,1,2.42-2,2.35,2.35,0,0,1,2,.91,0.52,0.52,0,0,1-.36.85l-0.38.11a0.76,0.76,0,0,1-.78-0.23,0.76,0.76,0,0,0-.52-0.18,0.45,0.45,0,0,0-.52.41,0.53,0.53,0,0,0,.49.42l0.74,0.29c1.31,0.46,1.85,1.13,1.86,1.94,0,1.34-1.21,2-2.6,2A2.56,2.56,0,0,1,270.74,262.88Z" transform="translate(-35.85 -35.22)"/>
    <path class="08150496-683e-48c4-802f-247b4090c4c4" d="M276.48,260.93a3.25,3.25,0,0,1,3.45-3.27,3.1,3.1,0,0,1,3.37,3.12,0.53,0.53,0,0,1-.66.53h-4.14a1.55,1.55,0,0,0,1.78,1.2,2.58,2.58,0,0,0,1.24-.31,0.64,0.64,0,0,1,.9.16l0.17,0.22a0.59,0.59,0,0,1-.13.94,4.15,4.15,0,0,1-2.34.66C277.83,264.16,276.48,262.72,276.48,260.93Zm4.84-.71a1.26,1.26,0,0,0-1.38-1,1.31,1.31,0,0,0-1.4,1h2.78Z" transform="translate(-35.85 -35.22)"/>
    <path class="08150496-683e-48c4-802f-247b4090c4c4" d="M284.25,263.38V256a0.58,0.58,0,0,1,.65-0.65h0.86a0.58,0.58,0,0,1,.65.65v2.67a1.88,1.88,0,0,1,1.81-1c1.8,0,2.22,1.5,2.22,2.75v3a0.58,0.58,0,0,1-.65.65h-0.86a0.58,0.58,0,0,1-.65-0.65v-2.79a1,1,0,0,0-.85-1.21,1.13,1.13,0,0,0-1,1.35v2.65a0.58,0.58,0,0,1-.65.65H284.9A0.58,0.58,0,0,1,284.25,263.38Z" transform="translate(-35.85 -35.22)"/>
    <path class="08150496-683e-48c4-802f-247b4090c4c4" d="M291.33,260.91a3.54,3.54,0,1,1,3.53,3.25A3.33,3.33,0,0,1,291.33,260.91Zm5,0a1.51,1.51,0,1,0-1.51,1.55A1.48,1.48,0,0,0,296.37,260.91Z" transform="translate(-35.85 -35.22)"/>
    <path class="08150496-683e-48c4-802f-247b4090c4c4" d="M299.37,263.38V256a0.58,0.58,0,0,1,.65-0.65h0.86a0.58,0.58,0,0,1,.65.65v7.38a0.58,0.58,0,0,1-.65.65H300A0.58,0.58,0,0,1,299.37,263.38Z" transform="translate(-35.85 -35.22)"/>
    <path class="08150496-683e-48c4-802f-247b4090c4c4" d="M302.54,260.91a3,3,0,0,1,3-3.25,2.13,2.13,0,0,1,1.88,1V256a0.58,0.58,0,0,1,.65-0.65h0.86a0.58,0.58,0,0,1,.65.65v7.38a0.58,0.58,0,0,1-.65.65H308a0.58,0.58,0,0,1-.65-0.65V263.2a2.15,2.15,0,0,1-1.88,1A3,3,0,0,1,302.54,260.91Zm4.89,0a1.43,1.43,0,0,0-1.38-1.57,1.59,1.59,0,0,0,0,3.14A1.43,1.43,0,0,0,307.44,260.91Z" transform="translate(-35.85 -35.22)"/>
    <path class="08150496-683e-48c4-802f-247b4090c4c4" d="M310.66,262.88a0.54,0.54,0,0,1,.46-0.79l0.42-.1a0.79,0.79,0,0,1,.8.37,1.18,1.18,0,0,0,.83.29c0.42,0,.7-0.16.7-0.43s-0.12-.3-0.5-0.43l-0.73-.26c-0.49-.17-1.85-0.6-1.85-1.86a2.15,2.15,0,0,1,2.42-2,2.35,2.35,0,0,1,2,.91,0.52,0.52,0,0,1-.36.85l-0.38.11a0.76,0.76,0,0,1-.78-0.23,0.75,0.75,0,0,0-.52-0.18,0.45,0.45,0,0,0-.52.41,0.53,0.53,0,0,0,.49.42l0.74,0.29c1.31,0.46,1.85,1.13,1.86,1.94,0,1.34-1.21,2-2.6,2A2.56,2.56,0,0,1,310.66,262.88Z" transform="translate(-35.85 -35.22)"/>
    <path class="08150496-683e-48c4-802f-247b4090c4c4" d="M316.54,263a1.28,1.28,0,1,1,1.26,1.12A1.17,1.17,0,0,1,316.54,263Z" transform="translate(-35.85 -35.22)"/>
    <path class="08150496-683e-48c4-802f-247b4090c4c4" d="M320,263a1.28,1.28,0,1,1,1.26,1.12A1.17,1.17,0,0,1,320,263Z" transform="translate(-35.85 -35.22)"/>
    <path class="08150496-683e-48c4-802f-247b4090c4c4" d="M323.42,263a1.28,1.28,0,1,1,1.26,1.12A1.17,1.17,0,0,1,323.42,263Z" transform="translate(-35.85 -35.22)"/>
  </g>
  <text id="rank_s" text-anchor="middle" class="d2b24f1c-d7d4-4be4-bf1e-414da400bcdc" transform="translate(71.5 320.14)"></text>
  <text id="rank_ns" text-anchor="middle" class="d2b24f1c-d7d4-4be4-bf1e-414da400bcdc" transform="translate(250.5 320.14)"></text>
  <text id="perc_s" text-anchor="middle" class="d2b24f1c-d7d4-4be4-bf1e-414da400bcdc" transform="translate(71.5 420.34)"></text>
  <text id="perc_ns" text-anchor="middle" class="d2b24f1c-d7d4-4be4-bf1e-414da400bcdc" transform="translate(250.5 420.34)"></text>
</svg>
